<svg version="1.1" id="_x30_" x="0" y="0" xml:space="preserve" width="336.6" height="272.9" xmlns="http://www.w3.org/2000/svg"><style type="text/css" id="style1">.st2{fill:#9100aa}</style><g id="LWPOLYLINE_57_" transform="translate(-418.6 -429.5)"><g id="XMLID_3_"><g id="g19" transform="translate(356 -.2)"><path id="rect18" class="st2" style="fill:#fff;fill-opacity:1" d="M120.2 438.8h40.3v6.5h-40.3z"/><path class="st2" id="polygon18" style="fill:#fff;fill-opacity:1" d="m230.9 429.7 168.3 130-8.4 10.8L230.9 447 71 570.5l-8.4-10.8 61.3-47.3v-64h32.8V487z"/><path class="st2" d="M145 621.3v-21.1h-25.3v21.1zm0 24v-21.1h-25.3v21.1zm2.9-21.1v21.1h25.3v-21.1zm25.2-2.9v-21.1h-25.3v21.1zm56.4-86.8v-21.1h-27.2v21.1zm0 24v-21.1h-27.2v21.1zm2.8-21.1v21.1h27.2v-21.1zm27.2-2.9v-21.1h-27.2v21.1zm54.4 86.8v-21.1h-25.3v21.1zm0 24v-21.1h-25.3v21.1zm28.2-21.1h-25.3v21.1h25.3zm0-2.9v-21.1h-25.3v21.1zm21.2-59.8v141.1h-99.8v-10.9h-3.1v10.9h-58.9v-93.9h58.9v10.9h3.1v-14h-65.1v97H98.6V561.5L231 459.3Zm-99.8 121.1v-23.9h-3.1v23.9zm0-33.1v-20.8h-3.1v20.8zM222.6 660v-.3c0-.6-.5-1.1-1.1-1.1h-8.6v-5.3c0-.7-.6-1.3-1.3-1.3h-2.2c-.7 0-1.3.6-1.3 1.3v15.9c0 .7.6 1.3 1.3 1.3h2.2c.7 0 1.3-.6 1.3-1.3v-8h8.6c.6-.1 1.1-.6 1.1-1.2z" id="path18" style="fill:#fff;fill-opacity:1"/></g></g></g></svg>