<?xml version="1.0" standalone="no"?>
<!DOCTYPE svg PUBLIC "-//W3C//DTD SVG 20010904//EN"
 "http://www.w3.org/TR/2001/REC-SVG-20010904/DTD/svg10.dtd">
<svg version="1.0" xmlns="http://www.w3.org/2000/svg"
 width="455.000000pt" height="455.000000pt" viewBox="0 0 455.000000 455.000000"
 preserveAspectRatio="xMidYMid meet">
<metadata>
Created by potrace 1.14, written by Peter Selinger 2001-2017
</metadata>
<g transform="translate(0.000000,455.000000) scale(0.100000,-0.100000)"
fill="#000000" stroke="none">
<path d="M2858 4004 c-2 -1 -15 -5 -28 -7 -61 -12 -172 -79 -225 -136 -19 -21
-52 -43 -73 -49 -52 -16 -150 -82 -197 -134 -75 -81 -106 -132 -159 -262 -10
-26 -17 -30 -53 -31 -37 -1 -42 2 -48 24 -32 131 -183 287 -294 304 -12 2 -36
21 -54 43 -17 21 -41 47 -52 57 -27 24 -152 85 -190 92 -134 25 -203 15 -333
-46 -212 -101 -312 -315 -245 -524 15 -47 47 -115 76 -159 32 -50 142 -138
196 -157 17 -6 31 -14 31 -18 0 -4 -17 -26 -38 -48 -65 -69 -92 -103 -92 -112
0 -5 -4 -11 -8 -13 -9 -4 -147 -212 -188 -283 -60 -107 -150 -232 -199 -280
-50 -48 -73 -62 -157 -99 -38 -17 -87 -67 -89 -92 -1 -8 -2 -20 -3 -26 -7 -42
73 -106 152 -123 12 -3 30 -7 39 -9 22 -4 83 -14 138 -21 22 -2 77 -6 123 -7
l82 -3 -4 -26 c-6 -40 35 -112 98 -173 32 -31 61 -56 63 -56 10 0 49 -56 71
-105 13 -27 46 -118 73 -202 46 -139 49 -156 39 -193 -15 -56 2 -175 36 -246
15 -32 53 -81 89 -118 105 -105 333 -207 580 -260 177 -37 484 -54 600 -32 17
3 46 8 65 11 19 3 47 8 62 11 l28 6 -16 -39 c-8 -21 -21 -51 -29 -68 -48 -108
-48 -114 -6 -151 32 -28 152 -70 175 -61 9 4 24 20 34 37 11 19 25 30 39 30
32 0 72 20 105 54 49 48 50 55 33 215 -6 63 6 76 101 107 48 16 102 41 121 55
24 20 40 25 56 20 12 -4 55 -17 96 -30 65 -21 79 -22 125 -12 47 10 54 16 79
61 26 46 27 51 13 84 -8 19 -28 44 -45 57 -17 12 -31 26 -31 31 0 4 25 34 56
65 31 32 68 74 83 93 14 19 29 37 32 40 8 7 124 202 148 248 10 20 26 66 34
102 9 36 30 103 46 150 16 47 32 101 35 120 3 19 11 60 17 90 14 63 17 251 6
355 -19 171 -103 292 -226 325 -24 6 -49 9 -56 6 -14 -5 -48 81 -59 149 -3 17
-8 41 -10 55 -3 14 -8 48 -11 75 -25 205 -36 230 -156 343 -75 71 -94 97 -135
177 -26 52 -51 95 -55 95 -4 0 -1 21 7 47 38 125 -10 321 -103 424 -46 51
-148 116 -214 135 -47 14 -192 27 -201 18z"/>
</g>
</svg>
