<?xml version="1.0" encoding="utf-8"?>
<!-- Generator: Adobe Illustrator 24.2.3, SVG Export Plug-In . SVG Version: 6.00 Build 0)  -->
<svg version="1.1" id="Layer_1" xmlns="http://www.w3.org/2000/svg" xmlns:xlink="http://www.w3.org/1999/xlink" x="0px" y="0px"
	 viewBox="0 0 141.87 32.42" style="enable-background:new 0 0 141.87 32.42;" xml:space="preserve">
<style type="text/css">
	.st0{fill:#00A0DF;}
	.st1{fill:#FFFFFF;}
</style>
<polygon class="st0" points="9.92,5.96 9.56,5.96 0,26.45 2.33,26.45 9.64,10.42 17.18,26.45 19.35,26.45 "/>
<path class="st0" d="M35.24,7.77c3.12,0,5.85,1.7,7.31,4.22l1.68-0.97c-1.79-3.1-5.15-5.19-8.99-5.19
	c-5.73,0-10.38,4.65-10.38,10.38c0,5.73,4.65,10.38,10.38,10.38c3.84,0,7.19-2.09,8.99-5.19l-1.68-0.97
	c-1.46,2.52-4.19,4.22-7.31,4.22c-4.66,0-8.44-3.78-8.44-8.44C26.8,11.55,30.58,7.77,35.24,7.77z"/>
<rect x="81.28" y="6.07" class="st0" width="2.18" height="20.28"/>
<path class="st0" d="M104.6,5.83c-5.73,0-10.38,4.65-10.38,10.38c0,5.73,4.65,10.38,10.38,10.38c5.73,0,10.38-4.65,10.38-10.38
	C114.97,10.48,110.33,5.83,104.6,5.83z M104.6,24.65c-4.66,0-8.44-3.78-8.44-8.44c0-4.66,3.78-8.44,8.44-8.44
	c4.66,0,8.44,3.78,8.44,8.44C113.04,20.87,109.26,24.65,104.6,24.65z"/>
<path class="st0" d="M141.33,6.07l-8.54,9.46l-8.54-9.46h-0.53V8.4v7.44v10.51h2.03V12.66c0-0.15-0.01-0.31-0.01-0.47v-1.27
	l1.22,1.31c0.01,0.01,0.01,0.01,0.02,0.02l1.4,1.5l0.23,0.25l0,0l4.19,4.49l5.82-6.24c0.57-0.69,1.4-1.88,1.4-1.88
	s-0.18,1.43-0.18,2.3v13.69h2.03V8.4V6.07H141.33z"/>
<rect x="64.95" y="10.1" transform="matrix(0.5358 -0.8443 0.8443 0.5358 23.9699 63.7992)" class="st0" width="10.11" height="0"/>
<polygon class="st0" points="72.72,26.59 67.3,18.05 65.9,20.25 64.68,22.17 63.55,23.96 65.22,26.59 67.48,26.59 67.48,26.59 
	70.28,26.59 70.28,26.59 "/>
<polygon class="st0" points="69.92,5.83 69.92,5.83 68.01,5.83 68.01,5.83 65.22,5.83 63.55,8.46 64.68,10.24 65.9,12.17 
	67.3,14.37 72.72,5.83 72.72,5.83 "/>
<polygon class="st1" points="58.79,5.45 55.33,0 55.33,0 55.33,0 45.88,0 56.17,16.21 45.88,32.42 46.45,32.42 46.45,32.42 
	48.73,32.42 48.73,32.42 55.33,32.42 58.79,26.97 65.61,16.21 "/>
</svg>
