<svg xmlns="http://www.w3.org/2000/svg" viewBox="0 0 600 530"><path fill="#1185fe" d="M135.72 44.03C202.22 93.95 273.74 195.17 300 249.49c26.26-54.32 97.78-155.54 164.28-205.46C512.26 8.01 590-19.87 590 68.83c0 17.7-10.15 148.78-16.11 170.06-20.7 73.99-96.14 92.86-163.25 81.44 117.3 19.96 147.14 86.09 82.7 152.22-122.4 125.59-175.91-31.51-189.63-71.77-2.52-7.38-3.7-10.83-3.71-7.9-.02-2.93-1.2.52-3.7 7.9-13.72 40.26-67.24 197.36-189.64 71.77-64.44-66.13-34.6-132.26 82.7-152.22-67.11 11.42-142.55-7.45-163.25-81.44C20.15 217.61 10 86.53 10 68.83 10-19.88 87.74 8 135.72 44.02z"/></svg>