<svg xmlns="http://www.w3.org/2000/svg" width="160" height="184">
  <path fill="#7401b1" d="M78.5964638 182.5519189c-.318551-.11384-1.146551-.53414-1.84-.93401-1.435948-.82804-1.921114-1.10248-4.700818-2.65916-1.1-.61601-2.828-1.60651-3.84-2.2011-2.601542-1.52853-8.606274-4.99086-11.44-6.5963-2.924616-1.65693-4.746818-2.70332-12.16-6.9828-3.168-1.82882-6.552-3.75927-7.52-4.28989-.968-.53062-2.624-1.4815-3.68-2.11306-1.056-.63157-3.72-2.1791-5.92-3.43896-2.2-1.25986-4.668547-2.67609-5.485661-3.14718-.817113-.47109-1.515257-.85653-1.551429-.85653-.081416 0-1.409708-.76415-4.32291-2.48693-2.720356-1.60873-9.8900859-5.72762-12.3533048-7.09677-2.0170053-1.12112-3.19197275-2.23636-3.5266952-3.3474-.44015868-1.46102-.26689053-89.079495.17803485-90.0289.42993765-.917424 1.65359285-2.126378 2.67923935-2.64705.3864992-.196208 1.0036984-.562888 1.3715538-.814846.3678555-.251957.7021682-.458104.7429171-.458104.040749 0 .9637765-.515077 2.051172-1.144614 1.0873955-.629538 2.7330829-1.572119 3.6570829-2.094624.924-.522506 1.932-1.111863 2.24-1.309685.308-.197821.992-.59677 1.52-.886551.528-.289782 1.788-1.011878 2.8-1.604657 1.012-.592779 2.632-1.531139 3.6-2.085242 2.198835-1.258661 4.186938-2.403549 6.2-3.570393 4.064483-2.355924 4.791522-2.775727 6.36-3.672348.924-.528204 1.896-1.083644 2.16-1.23431.264-.150666.84-.490816 1.28-.755891.44-.265075 1.844-1.078637 3.12-1.807915 1.276-.729279 3.237405-1.855229 4.358677-2.502112 1.121272-.646884 2.993272-1.726356 4.16-2.398828s3.165323-1.829227 4.441323-2.570567c1.276-.741341 3.292-1.904961 4.48-2.585821 3.89841-2.234238 8.696154-5.0059711 10-5.7771614 3.725126-2.2033113 10.469058-6.00924978 10.958122-6.18421734 1.68304-.60212405 2.6281-.18668825 11.521878 5.06485894 3.652282 2.1565788 10.96327 6.3657638 13.76 7.9220998.924.514191 2.04 1.165639 2.48 1.447661.69224.443696 7.65171 4.460904 14.64 8.450632 1.188.678248 2.736 1.578861 3.44 2.001362.704.422499 3.476 2.027409 6.16 3.566465 8.63757 4.952944 9.29363 5.331296 13.61622 7.852519 2.34093 1.365379 4.57293 2.661489 4.96 2.880243.38708.218755 1.38778.789669 2.22378 1.268701.836.47903 2.52007 1.434401 3.74237 2.123046 2.18201 1.229347 4.09763 2.794405 4.09763 3.347759 0 .121224.108.31004.24.41959.48877.40564.34232 88.95454-.14882 89.98456-.53215 1.11602-1.64618 2.13039-3.45118 3.14244-.836.46873-1.628.93656-1.76 1.03961-.132.10305-.744.4556-1.36.78343-.616.32784-1.768.97762-2.56 1.44396-1.97054 1.16028-4.40005 2.55849-5.84 3.361-.66.36782-3.864 2.20246-7.12 4.07697-3.256 1.87451-6.712 3.859-7.68 4.40998-.968.55097-2.156 1.23237-2.64 1.5142-3.20685 1.86735-5.81435 3.36385-5.86115 3.36385-.0302 0-.86576.48155-1.85686 1.07011-.99109.58856-2.52199 1.4773-3.40199 1.97496-.88.49767-2.824 1.60896-4.32 2.46955-1.496.8606-3.62 2.0702-4.72 2.68802-1.1.61781-2.18 1.24459-2.4 1.39283-.22.14824-.904.54445-1.52.88047-.616.33601-1.948 1.09452-2.96 1.6856-2.870606 1.6766-4.926709 2.86003-6.32 3.63761-.704.39288-1.928 1.09339-2.72 1.55666-9.990093 5.84365-10.526066 6.08249-12.259182 5.46318z"/>
  <path fill="#fcdf84" d="M85.7829198 161.8146589c-.047274-.55827-.047274-.55827-1.382738-.83431-1.501507-.31035-2.250474-.68049-2.541819-1.25617-.415315-.82066-.275855-24.42085.145643-24.64643.244717-.13097 1.184869-.16249 3.16-.10597 4.215646.12065 5.272435.6581 6.649502 3.38171.359101.71024.78672 1.32863.979503 1.41646.451718.20582 1.070222-.10868.957285-.48676-.17381-.58187-.579781-2.42884-.88353-4.01963-.453299-2.37403-.367192-2.31844-3.258696-2.10378-2.983278.22147-17.18108.22551-19.888485.006-3.054109-.248-2.814787-.46195-3.587909 3.20748-.747092 3.54589-.724872 3.29944-.30734 3.40863.577731.15108.87639-.1209 1.587964-1.44609 1.515711-2.82276 2.781341-3.39246 7.551917-3.39937 3.043903-.004 2.691589-1.60302 2.690536 12.20826-.0011 14.53159.314903 13.29322-3.557817 13.94225-.602082.10089-.915338.57409-.718917 1.08597.224341.5846 12.454832.23172 12.404901-.35792zm11.780344-45.11493c2.193082-.50863 2.648332-3.23075.721428-4.31373-1.029804-.57878-36.885048-.43834-37.511384.14693-1.062803.99312-1.085838 3.76824-.03189 3.84241.01883.001.322232.10616.674232.23298.751336.27067 35.00123.35729 36.147618.0914zm-31.847556-8.29454c.04342-.0703-1.134158-1.85097-2.616844-3.95714-4.446351-6.316074-5.017343-8.13619-3.200082-10.200709 1.678643-1.907038 2.783053-1.543125 2.808981.925589.02778 2.644579.443749 3.695867 2.769097 6.99833.945584 1.34292 2.24657 3.19767 2.891079 4.12167 1.693275 2.42756 1.295929 2.24 4.745432 2.24 1.837344 0 2.942275-.0595 2.942275-.15858 0-.0872-1.244947-1.90523-2.76655-4.04-5.523492-7.749353-5.39345-7.526207-5.39345-9.254958 0-4.324979 5.39215-7.0339 8.455202-4.247747.921648.838331.898035.611482.984798 9.461285.08 8.16.08 8.16 2.217861 8.20477 2.896902.0607 2.582139 1.0717 2.582139-8.29395 0-9.438562-.02838-9.298166 2.035494-10.070359 3.573812-1.337133 7.244506 1.126763 7.244506 4.862761 0 1.597821-.279939 2.198978-2.429232 5.216678-4.745173 6.66243-5.709926 8.06438-5.634038 8.18717.09495.15364 5.50616.18317 5.89958.0322.223644-.0858 2.46962-3.13779 5.243229-7.12481 1.617578-2.325244 2.04093-3.530404 2.18304-6.21447.112375-2.122438.500839-2.417235 2.015554-1.529554 2.847147 1.66854 2.333837 4.065188-2.277962 10.635904-3.395333 4.83753-3.393654 4.33365-.01443 4.33365 3.555669 0 3.053825.30041 5.479309-3.28 2.65855-3.92444 3.67987-6.368934 3.67671-8.8-.007-5.505237-4.74658-9.385157-10.23001-8.374794-1.005149.185205-1.005149.185205-2.018448-.702473-3.388976-2.968827-10.49424-3.640112-13.005302-1.228691-.285227.273907-1.037358.146512-1.988466-.336806-3.889507-1.976504-9.007572-1.347554-12.140878 1.491972-1.005773.911472-1.069197.942836-1.701683.84149-6.8322-1.094752-11.987648 3.893789-10.488888 10.149312.56872 2.37373 3.161257 7.00312 5.353757 9.56.551174.64278 6.029137 1.11709 6.37822.55226zm70.739378-22.298361c.0416-.04163.15283-.646787.24711-1.344795.0943-.698006.35292-2.161434.57474-3.252059.43941-2.160467.42096-2.249711-.46631-2.254595-.28223-.0016-.48002.09997-.5407.27755-1.38982 4.067138-2.79944 4.901816-8.29428 4.911283-4.30588.0074-4.73204-.08891-5.03843-1.138883-.36607-1.254512-.14485-23.309051.23805-23.732061.48055-.530886 1.0942-.795443 2.4442-1.053739 1.29866-.248475 1.50355-.393939 1.43763-1.020682-.0667-.634345-11.69471-.620814-11.76954.0137-.063.533837.15819.692639 1.40591 1.009546 2.24799.57097 2.08218-.474691 2.08218 13.13084 0 13.67401.17079 12.716898-2.35894 13.219728-1.05245.209194-1.48842.59336-1.28246 1.130069.0789.205589 21.11663.308309 21.32084.104102zm-94.39944-.540568c2.439746-.308057 2.378506-.272013 2.64209-1.555086.112788-.549035.520025-2.064586.904971-3.367891.762653-2.582106.762267-2.670354-.011706-2.670354-.649198 0-.812.190142-1.661593 1.940651-1.491252 3.072584-3.571378 4.293792-7.313762 4.293792-13.425811 0-16.715595-23.137085-3.718371-26.151342 4.956467-1.149482 8.636872.07983 10.212317 3.411073.36047.762204.741558 1.565826.846862 1.785826.149704.312758.312261.4.745326.4.679877 0 .680941-.02021.168599-3.2-.587245-3.644664-.457792-3.31016-1.374733-3.552245-14.051826-3.709869-24.56119 3.435531-23.303194 15.844023 1.062516 10.480326 8.032584 14.567884 21.863194 12.821553Zm39.403496-3.224696c3.038162-1.441701 3.01232-5.929945-.04233-7.352425-2.923162-1.361247-6.118098.93039-5.781877 4.147176.283582 2.713161 3.329147 4.389233 5.824207 3.205249z"/>
  <path fill="#630197" d="M78.5964638 182.5519189c-.318551-.11384-1.146551-.53414-1.84-.93401-1.435948-.82804-1.921114-1.10248-4.700818-2.65916-1.1-.61601-2.828-1.60651-3.84-2.2011-2.601542-1.52853-8.606274-4.99086-11.44-6.5963-2.924616-1.65693-4.746818-2.70332-12.16-6.9828-3.168-1.82882-6.552-3.75927-7.52-4.28989-.968-.53062-2.624-1.4815-3.68-2.11306-1.056-.63157-3.72-2.1791-5.92-3.43896-2.2-1.25986-4.668547-2.67609-5.485661-3.14718-.817113-.47109-1.515257-.85653-1.551429-.85653-.081416 0-1.409708-.76415-4.32291-2.48693-2.720356-1.60873-9.8900859-5.72762-12.3533048-7.09677-2.0170053-1.12112-3.19197275-2.23636-3.5266952-3.3474-.44015868-1.46102-.26689053-89.079495.17803485-90.0289.42993765-.917424 1.65359285-2.126378 2.67923935-2.64705.3864992-.196208 1.0036984-.562888 1.3715538-.814846.3678555-.251957.7021682-.458104.7429171-.458104.040749 0 .9637765-.515077 2.051172-1.144614 1.0873955-.629538 2.7330829-1.572119 3.6570829-2.094624.924-.522506 1.932-1.111863 2.24-1.309685.308-.197821.992-.59677 1.52-.886551.528-.289782 1.788-1.011878 2.8-1.604657 1.012-.592779 2.632-1.531139 3.6-2.085242 2.198835-1.258661 4.186938-2.403549 6.2-3.570393 4.064483-2.355924 4.791522-2.775727 6.36-3.672348.924-.528204 1.896-1.083644 2.16-1.23431.264-.150666.84-.490816 1.28-.755891.44-.265075 1.844-1.078637 3.12-1.807915 1.276-.729279 3.237405-1.855229 4.358677-2.502112 1.121272-.646884 2.993272-1.726356 4.16-2.398828s3.165323-1.829227 4.441323-2.570567c1.276-.741341 3.292-1.904961 4.48-2.585821 3.89841-2.234238 8.696154-5.0059711 10-5.7771614 3.725126-2.2033113 10.469058-6.00924978 10.958122-6.18421734 1.68304-.60212405 2.6281-.18668825 11.521878 5.06485894 3.652282 2.1565788 10.96327 6.3657638 13.76 7.9220998.924.514191 2.04 1.165639 2.48 1.447661.69224.443696 7.65171 4.460904 14.64 8.450632 1.188.678248 2.736 1.578861 3.44 2.001362.704.422499 3.476 2.027409 6.16 3.566465 8.63757 4.952944 9.29363 5.331296 13.61622 7.852519 2.34093 1.365379 4.57293 2.661489 4.96 2.880243.38708.218755 1.38778.789669 2.22378 1.268701.836.47903 2.52007 1.434401 3.74237 2.123046 2.18201 1.229347 4.09763 2.794405 4.09763 3.347759 0 .121224.108.31004.24.41959.48877.40564.34232 88.95454-.14882 89.98456-.53215 1.11602-1.64618 2.13039-3.45118 3.14244-.836.46873-1.628.93656-1.76 1.03961-.132.10305-.744.4556-1.36.78343-.616.32784-1.768.97762-2.56 1.44396-1.97054 1.16028-4.40005 2.55849-5.84 3.361-.66.36782-3.864 2.20246-7.12 4.07697-3.256 1.87451-6.712 3.859-7.68 4.40998-.968.55097-2.156 1.23237-2.64 1.5142-3.20685 1.86735-5.81435 3.36385-5.86115 3.36385-.0302 0-.86576.48155-1.85686 1.07011-.99109.58856-2.52199 1.4773-3.40199 1.97496-.88.49767-2.824 1.60896-4.32 2.46955-1.496.8606-3.62 2.0702-4.72 2.68802-1.1.61781-2.18 1.24459-2.4 1.39283-.22.14824-.904.54445-1.52.88047-.616.33601-1.948 1.09452-2.96 1.6856-2.870606 1.6766-4.926709 2.86003-6.32 3.63761-.704.39288-1.928 1.09339-2.72 1.55666-9.990093 5.84365-10.526066 6.08249-12.259182 5.46318zm7.368859-20.01261c.531488-.32848.0085-1.68638-.64952-1.68638-.816224 0-2.615451-.54075-2.966171-.89147-.373986-.37399-.373986-.37399-.373986-12.54126s0-12.16727 2.538162-12.16727c4.5808 0 5.62564.4618 6.988937 3.08901.772704 1.48908.978096 1.71151 1.577699 1.70854 1.074309-.005 1.065586.11049.284964-3.78278-.741663-3.69897-.678525-3.63659-3.448735-3.40736-2.33472.1932-18.378947.19057-20.723907-.003-2.577682-.21322-2.604341-.18862-3.208926 2.96075-.185325.96538-.449644 2.20783-.587375 2.761-.563944 2.26498 1.152023 2.10027 2.312075-.22192 1.298616-2.59956 2.451573-3.10384 7.096492-3.10384 2.530614 0 2.530614 0 2.530614 12.09231 0 13.81675.145803 12.77719-1.849362 13.18564-2.282427.46728-2.790163.85344-2.360932 1.7956.165211.36264 12.272843.56333 12.839971.21283zm36.918593-42.04638c.66795-.74206.56826-1.06536-1.14996-3.72939-.45739-.70916-1.1795-1.96916-1.60467-2.8-.99723-1.94867-6.75116-12.12556-7.75972-13.72449-.42537-.674365-1.14779-1.94612-1.60537-2.82612-.86074-1.655326-4.95649-8.928853-6.53201-11.6-.4931-.836-.92526-1.592-.96036-1.68-.0351-.088-.2331-.363525-.44-.612277-.2069-.24875-.37618-.545934-.37618-.660408 0-.114473-.1073-.297181-.23843-.406016-.13114-.108835-.69336-1.107651-1.24937-2.21959-1.16597-2.331771-6.246032-11.335527-7.169334-12.706731-.342576-.508764-.622866-.985948-.622866-1.06041 0-.07446-.105053-.222573-.233453-.329134-.128398-.10656-.568134-.889376-.977192-1.739591-1.011881-2.103165-6.269504-11.409419-7.878784-13.945843-.362915-.572-1.026499-1.76-1.474632-2.64-1.78227-3.499861-2.087857-3.874808-3.042659-3.733261-.40139.059506-.95748.938807-4.030595 6.373261-1.020139 1.804-2.001637 3.532-2.181107 3.84-.179469.308-.628498 1.1-.99784 1.76-.369344.66-1.055008 1.85899-1.523701 2.664422-.468693.805432-1.201415 2.101432-1.628271 2.88-.753112 1.373645-2.752208 4.896954-5.478491 9.655578-.731038 1.276-1.773939 3.112-2.317557 4.08-1.8182 3.237598-2.515057 4.46868-3.486896 6.16-1.461032 2.542683-2.828822 5.006411-2.828822 5.095411 0 .04367-.09924.193061-.220531.331991-.121291.138929-.543912.864598-.939157 1.612598-.89924 1.701808-1.286165 2.389032-1.776555 3.155373-.3632.567577-2.568259 4.432893-3.539575 6.204627-.521504.951251-2.788483 4.95083-4.080988 7.2-.505701.88-1.171223 2.068-1.478938 2.64-.812256 1.50987-1.259734 2.29699-1.414616 2.48833-.134086.16565-1.34443 2.28291-2.922107 5.11167-.441722.792-1.150621 2.04077-1.575331 2.77504-.884428 1.52906-.918925 1.73992-.379842 2.3216.574744.62015 85.55843.68268 86.11591.0634zm13.70793-34.180245c.12219-.101409.30765-.833712.42055-1.660582.11108-.813546.37455-2.307173.58549-3.319173.63013-3.023157-.689-3.565162-2.03337-.835472-1.50594 3.057742-2.45102 3.58024-6.66187 3.683098-6.50989.159014-5.80753 1.659462-5.80464-12.400354.003-13.682811-.25608-12.387072 2.59298-12.977805 1.50784-.312638 1.93675-.722616 1.63938-1.566998-.23979-.680855-12.06378-.697517-12.30334-.01734-.23885.678171.0925 1.188536.90151 1.388706 2.85261.705776 2.52711-.974615 2.52711 13.046163 0 13.63787.15811 12.335621-1.5537 12.797133-.50946.137355-1.10613.303865-1.32593.370024-.51613.155355-.85225.835561-.66119 1.338078.16246.427309 21.16791.577042 21.67702.15452zm-94.468101-.481574c2.367114-.307423 2.727735-.456288 2.734357-1.128762.0039-.399845.593707-2.65404 1.231798-4.708137.659829-2.124069.612119-2.341282-.514254-2.341282-.731186 0-.951653.239086-1.770483 1.92-1.681456 3.451734-3.523415 4.470498-7.731901 4.276414-12.815718-.591022-15.544859-22.228296-3.217616-25.510016 4.881838-1.299628 9.024162.284253 10.339848 3.953602.512757 1.430042.635872 1.584642 1.351232 1.696782 1.108354.173746 1.21551-.101771.822326-2.114315-.18723-.958357-.418819-2.354467-.514638-3.102467-.256472-2.002085-.116118-1.844301-2.045642-2.299694-13.358684-3.152828-22.94958 2.955627-22.954403 14.619694-.0048 11.585872 7.630931 16.639299 22.269376 14.738181z"/>
  <path fill="#5a008a" d="M78.5964638 182.5519189c-.318551-.11384-1.146551-.53414-1.84-.93401-1.435948-.82804-1.921114-1.10248-4.700818-2.65916-1.1-.61601-2.828-1.60651-3.84-2.2011-2.601542-1.52853-8.606274-4.99086-11.44-6.5963-2.924616-1.65693-4.746818-2.70332-12.16-6.9828-3.168-1.82882-6.552-3.75927-7.52-4.28989-.968-.53062-2.624-1.4815-3.68-2.11306-1.056-.63157-3.72-2.1791-5.92-3.43896-2.2-1.25986-4.668547-2.67609-5.485661-3.14718-.817113-.47109-1.515257-.85653-1.551429-.85653-.081416 0-1.409708-.76415-4.32291-2.48693-2.720356-1.60873-9.8900859-5.72762-12.3533048-7.09677-2.0170053-1.12112-3.19197275-2.23636-3.5266952-3.3474-.44015868-1.46102-.26689053-89.079495.17803485-90.0289.42993765-.917424 1.65359285-2.126378 2.67923935-2.64705.3864992-.196208 1.0036984-.562888 1.3715538-.814846.3678555-.251957.7021682-.458104.7429171-.458104.040749 0 .9637765-.515077 2.051172-1.144614 1.0873955-.629538 2.7330829-1.572119 3.6570829-2.094624.924-.522506 1.932-1.111863 2.24-1.309685.308-.197821.992-.59677 1.52-.886551.528-.289782 1.788-1.011878 2.8-1.604657 1.012-.592779 2.632-1.531139 3.6-2.085242 2.198835-1.258661 4.186938-2.403549 6.2-3.570393 4.064483-2.355924 4.791522-2.775727 6.36-3.672348.924-.528204 1.896-1.083644 2.16-1.23431.264-.150666.84-.490816 1.28-.755891.44-.265075 1.844-1.078637 3.12-1.807915 1.276-.729279 3.237405-1.855229 4.358677-2.502112 1.121272-.646884 2.993272-1.726356 4.16-2.398828s3.165323-1.829227 4.441323-2.570567c1.276-.741341 3.292-1.904961 4.48-2.585821 3.89841-2.234238 8.696154-5.0059711 10-5.7771614 3.725126-2.2033113 10.469058-6.00924978 10.958122-6.18421734 1.68304-.60212405 2.6281-.18668825 11.521878 5.06485894 3.652282 2.1565788 10.96327 6.3657638 13.76 7.9220998.924.514191 2.04 1.165639 2.48 1.447661.69224.443696 7.65171 4.460904 14.64 8.450632 1.188.678248 2.736 1.578861 3.44 2.001362.704.422499 3.476 2.027409 6.16 3.566465 8.63757 4.952944 9.29363 5.331296 13.61622 7.852519 2.34093 1.365379 4.57293 2.661489 4.96 2.880243.38708.218755 1.38778.789669 2.22378 1.268701.836.47903 2.52007 1.434401 3.74237 2.123046 2.18201 1.229347 4.09763 2.794405 4.09763 3.347759 0 .121224.108.31004.24.41959.48877.40564.34232 88.95454-.14882 89.98456-.53215 1.11602-1.64618 2.13039-3.45118 3.14244-.836.46873-1.628.93656-1.76 1.03961-.132.10305-.744.4556-1.36.78343-.616.32784-1.768.97762-2.56 1.44396-1.97054 1.16028-4.40005 2.55849-5.84 3.361-.66.36782-3.864 2.20246-7.12 4.07697-3.256 1.87451-6.712 3.859-7.68 4.40998-.968.55097-2.156 1.23237-2.64 1.5142-3.20685 1.86735-5.81435 3.36385-5.86115 3.36385-.0302 0-.86576.48155-1.85686 1.07011-.99109.58856-2.52199 1.4773-3.40199 1.97496-.88.49767-2.824 1.60896-4.32 2.46955-1.496.8606-3.62 2.0702-4.72 2.68802-1.1.61781-2.18 1.24459-2.4 1.39283-.22.14824-.904.54445-1.52.88047-.616.33601-1.948 1.09452-2.96 1.6856-2.870606 1.6766-4.926709 2.86003-6.32 3.63761-.704.39288-1.928 1.09339-2.72 1.55666-9.990093 5.84365-10.526066 6.08249-12.259182 5.46318zm4.017152-19.83493c3.562928.16157 3.485801.17176 3.607406-.47644.157909-.84173-.134445-1.35455-.838144-1.4702-3.636659-.59768-3.247232.98623-3.247232-13.2073 0-12.17459 0-12.17459 3.08-12.12235 4.196826.0712 4.971539.45463 6.28369 3.11022.89831 1.81803 2.590792 2.39323 2.536428.86201-.05846-1.6468-1.30159-6.54866-1.665747-6.56834-5.51892-.2983-25.555435.0411-25.789717.43685-.301809.50982-1.44916 5.822-1.372393 6.35413.176822 1.2257 1.563296.60019 2.52492-1.13913 1.492096-2.69879 2.078854-2.98048 6.362819-3.05465 3.08-.0533 3.08-.0533 3.08 12.01102 0 14.05444.259253 12.54313-2.24545 13.08978-1.80574.39412-1.91455.47226-1.91455 1.37509 0 .94896.05401.96091 3.60956.79931 1.64497-.0747 4.339754-.0747 5.98841 0zm40.35327-42.13399c.74033-.70928.35499-1.82075-1.62599-4.69007-.15189-.22-.76453-1.336-1.36142-2.48-1.28347-2.45986-6.16948-11.09615-7.37744-13.04-.46483-.748-1.22073-2.08-1.67979-2.96-.93473-1.791842-5.5755-9.994254-7.08547-12.523318-.53962-.903826-1.05952-1.78533-1.15533-1.958898-.0958-.17357-.28494-.442077-.42028-.596682-.13533-.154606-.67583-1.145102-1.2011-2.201102-1.03633-2.083424-5.842183-10.617136-7.073303-12.56-.418218-.66-.894474-1.416-1.058349-1.68s-.737606-1.344-1.27496-2.4c-1.092835-2.147629-6.127706-11.025197-7.30483-12.88-.418861-.66-1.318818-2.267333-1.999906-3.57185-2.337077-4.476305-2.636408-4.414566-5.681421 1.17185-.820501 1.505302-1.182448 2.136733-1.643057 2.866386-.224727.35599-.408594.680828-.408594.721862 0 .07693-.54141 1.034357-1.997149 3.531752-1.641317 2.815765-2.771446 4.821634-3.605835 6.4-.465203.88-.969659 1.78-1.121014 2-.151356.22-.796912 1.336-1.43457 2.48s-1.39467 2.476-1.682251 2.96c-.287579.484-1.295669 2.248-2.240195 3.92-.944528 1.672-2.129533 3.76-2.633346 4.64-.503811.88-1.74891 3.076-2.766886 4.88-1.017978 1.804-1.996903 3.532-2.175392 3.84-.17849.308-.770157 1.388-1.314816 2.4-.544661 1.012-1.186479 2.128-1.426263 2.48-.239784.352-.751944 1.216-1.138131 1.92-.386187.704-.810608 1.467016-.943155 1.695592-.132549.228576-.734568 1.308576-1.337821 2.4-.603253 1.091424-1.476088 2.632408-1.939634 3.424408-1.136225 1.94132-3.419913 5.98131-4.160401 7.36-.33085.616-.870807 1.552-1.199904 2.08-.329096.528-1.304979 2.22-2.168629 3.76-.863648 1.54-1.917746 3.40077-2.342438 4.13504-.90222 1.55989-.926069 1.74637-.307976 2.40804.685369.73369 85.522416.79955 86.287046.067zm-91.179432-6.25007c.206702-.33 1.047205-1.788 1.867781-3.24.820576-1.452 1.867099-3.288 2.325606-4.08.458507-.792 1.126111-1.98889 1.483563-2.65976.357452-.67087.942712-1.69813 1.300578-2.28282.357866-.58468.650664-1.09571.650664-1.13563 0-.0633 1.17815-2.13707 1.591731-2.80179.08213-.132.612856-1.068 1.179394-2.08.566539-1.012 1.385848-2.452 1.820686-3.2.831328-1.430029.915234-1.579035 3.221672-5.721208.796621-1.430664 1.694344-3.014664 1.994943-3.52 1.020347-1.71531 3.103241-5.392882 3.873339-6.838792.421822-.792.894121-1.622877 1.049555-1.846392.155434-.223515 1.358349-2.311515 2.673146-4.64 1.314795-2.328485 2.616662-4.614776 2.893035-5.08065.276374-.465872.502499-.872955.502499-.904628 0-.05285.683768-1.272052 1.485262-2.64833.179368-.308.860672-1.532 1.514007-2.72.653336-1.188 1.278177-2.268 1.388537-2.4.11036-.132.476716-.744.814127-1.36.337409-.616.734952-1.336.883427-1.6.486261-.864606 2.962296-5.251298 3.702744-6.56 3.218117-5.687851 3.106648-5.425248 2.542374-5.989522-.331883-.331883-1.311459-.331035-2.890478.0025-.396.08365-1.296.225965-2 .316261-2.145181.275146-3.636645.486109-4.56.645002-.484.08329-1.528.217737-2.32.298779-2.398536.24543-3.975451.47191-4.398539.63173-.220803.08341-.905461.190657-1.521461.238337-1.050434.0813-2.060419.210306-4.56.582427-.572.08516-1.652.224884-2.4.310504s-2.008.271487-2.8.413036c-.792.141548-2.016.319809-2.72.396136-.704.07633-1.838.214382-2.52.30679-.682.09241-1.762.235731-2.4.318496-.638.08276-1.88.263234-2.76.401045-.88.137811-1.96.291779-2.4.34215-.44.05037-.944.154266-1.12.230875-.176.07661-.896.173352-1.6.214983-1.476099.08729-3.728926.354118-4.08.483245-.132.04855-.816.159889-1.52.247422-1.806038.224555-3.678338.486462-4.8.67145-.528.08708-1.5.216636-2.16.287905-2.479408.267735-4.209071.517023-4.588645.661336-.215703.08201-.7295.153731-1.141771.159381-2.4401909.03344-3.9364565 1.011939-3.3361854 2.181731.2530988.493232.7150897 1.778802.9084777 2.527997.068146.264.4258949 1.344.7949981 2.4.3691036 1.056.9209146 2.64 1.2262476 3.52.305333.88.623039 1.762.706014 1.96.08298.198.215523.522.29455.72.07903.198.250741.612.381585.92.130845.308.313367.812.405605 1.12.825541 2.75663 2.393918 7.292118 3.181372 9.2.254245.616.59699 1.552.761654 2.08 1.04252 3.342859 2.261437 6.831426 3.216616 9.206022.302215.751314.549482 1.45429.549482 1.562172 0 .107881.06555.321171.145669.473977.08012.152807.289374.745829.465014 1.317829.175642.572.727933 2.192 1.227314 3.6.499382 1.408.9676 2.74 1.040485 2.96.07288.22.322025.904.553646 1.52.231621.616.77317 2.164 1.20344 3.439994 1.1602 3.44067 2.151891 6.22732 2.505338 7.04.172225.396.408467 1.044.52498 1.44.116516.396.248541.828.293392.96 1.290733 3.79873 1.83925 5.23247 2.064978 5.39752.515454.37691.98711.24179 1.387552-.39752zm98.257692-1.15388c.21537-.57537.57292-1.58612.79457-2.24612.39826-1.18594 1.90052-5.51408 2.7212-7.84.23287-.66.49784-1.452.58883-1.76.14576-.49342.2985-.91096.79017-2.16.31304-.79524.63643-1.712014 1.10056-3.12.27558-.836.56762-1.664.64897-1.84.0814-.176.39662-1.04.70057-1.92.30395-.88.74699-2.14.98454-2.8.78851-2.19083 2.32653-6.61036 3.06244-8.8.39928-1.188.82355-2.376.94284-2.64.11928-.264.39607-1.02.61509-1.68.21903-.66.65988-1.92.97968-2.8.31979-.88.79488-2.248 1.05574-3.04.26086-.792.54426-1.565022.62979-1.717829.0855-.152806.15551-.418557.15551-.590557 0-.172001.0634-.351913.1409-.399808.0775-.04789.17825-.25014.22392-.449441.0457-.199301.4935-1.514365.99519-2.922365.50169-1.408 1.32695-3.748 1.8339-5.2.50696-1.452 1.08216-3.072 1.27823-3.6.19606-.528.41324-1.176.48261-1.44.16644-.633419.78209-2.326546.9737-2.677829.73223-1.342382-.83142-2.362171-3.62194-2.362171-.40015 0-.84881-.06458-.99703-.143512-.14821-.07893-.91748-.231186-1.70948-.338344-3.07136-.415558-3.72451-.49803-5.04-.636389-.748-.07867-1.792-.216555-2.32-.306406-2.24875-.382677-4.4153-.691104-5.76-.819984-.792-.07591-1.836-.208786-2.32-.295283-.9332-.166778-2.1361-.342876-5.12-.749543-1.012-.137921-2.236-.313579-2.72-.39035-.84319-.133743-1.75399-.261811-4.56-.641192-.704-.09518-1.86295-.230813-2.57544-.301403-.71248-.07059-1.36923-.173956-1.45943-.229703-.0902-.05575-.76725-.177513-1.50457-.270595-.73731-.09308-1.88056-.242546-2.54056-.332146-.66-.0896-1.812-.226438-2.56-.304084-.748-.07765-1.72-.20616-2.16-.285588-.44-.07943-1.376-.231185-2.08-.337244-.704-.10606-1.68033-.261549-2.16963-.345535-.4893-.083984-1.312186-.152699-1.828642-.152699-.516454 0-1.16012-.06706-1.430368-.14903-.572064-.173509-2.009542-.40892-3.93136-.643828-1.447976-.176987-3.358224-.432185-4.8-.641254-1.916765-.277944-2.110115.395939-.793206 2.764541 1.30834 2.353189 2.547632 4.444904 2.827987 4.773169.123821.14498.425275.64898.669897 1.12 2.345223 4.515709 7.223804 13.130229 8.821242 15.576402.3448.528 1.04838 1.788 1.56352 2.8 1.08483 2.13119 6.42127 11.599798 7.09497 12.588829.25057.367854.45559.710593.45559.76164 0 .05105.23764.434075.52808.851173.29044.417097.7683 1.262358 1.06191 1.878358.29361.616 1.01883 1.984 1.61159 3.04 3.12558 5.56816 5.25687 9.288168 6.14177 10.72.54385.88 1.23095 2.068 1.52688 2.64.94695 1.83037 1.35384 2.56349 4.92851 8.88 3.51938 6.21882 4.0568 6.63492 5.07076 3.92612z"/>
  <path fill="#450069" d="M78.5964638 182.5519189c-.318551-.11384-1.146551-.53414-1.84-.93401-1.435948-.82804-1.921114-1.10248-4.700818-2.65916-1.1-.61601-2.828-1.60651-3.84-2.2011-2.601542-1.52853-8.606274-4.99086-11.44-6.5963-2.924616-1.65693-4.746818-2.70332-12.16-6.9828-3.168-1.82882-6.552-3.75927-7.52-4.28989-.968-.53062-2.624-1.4815-3.68-2.11306-1.056-.63157-3.72-2.1791-5.92-3.43896-2.2-1.25986-4.668547-2.67609-5.485661-3.14718-.817113-.47109-1.515257-.85653-1.551429-.85653-.081416 0-1.409708-.76415-4.32291-2.48693-2.720356-1.60873-9.8900859-5.72762-12.3533048-7.09677-2.0170053-1.12112-3.19197275-2.23636-3.5266952-3.3474-.44015868-1.46102-.26689053-89.079495.17803485-90.0289.42993765-.917424 1.65359285-2.126378 2.67923935-2.64705.3864992-.196208 1.0036984-.562888 1.3715538-.814846.3678555-.251957.7021682-.458104.7429171-.458104.040749 0 .9637765-.515077 2.051172-1.144614 1.0873955-.629538 2.7330829-1.572119 3.6570829-2.094624.924-.522506 1.932-1.111863 2.24-1.309685.308-.197821.992-.59677 1.52-.886551.528-.289782 1.788-1.011878 2.8-1.604657 1.012-.592779 2.632-1.531139 3.6-2.085242 2.198835-1.258661 4.186938-2.403549 6.2-3.570393 4.064483-2.355924 4.791522-2.775727 6.36-3.672348.924-.528204 1.896-1.083644 2.16-1.23431.264-.150666.84-.490816 1.28-.755891.44-.265075 1.844-1.078637 3.12-1.807915 1.276-.729279 3.237405-1.855229 4.358677-2.502112 1.121272-.646884 2.993272-1.726356 4.16-2.398828s3.165323-1.829227 4.441323-2.570567c1.276-.741341 3.292-1.904961 4.48-2.585821 3.89841-2.234238 8.696154-5.0059711 10-5.7771614 3.725126-2.2033113 10.469058-6.00924978 10.958122-6.18421734 1.68304-.60212405 2.6281-.18668825 11.521878 5.06485894 3.652282 2.1565788 10.96327 6.3657638 13.76 7.9220998.924.514191 2.04 1.165639 2.48 1.447661.69224.443696 7.65171 4.460904 14.64 8.450632 1.188.678248 2.736 1.578861 3.44 2.001362.704.422499 3.476 2.027409 6.16 3.566465 8.63757 4.952944 9.29363 5.331296 13.61622 7.852519 2.34093 1.365379 4.57293 2.661489 4.96 2.880243.38708.218755 1.38778.789669 2.22378 1.268701.836.47903 2.52007 1.434401 3.74237 2.123046 2.18201 1.229347 4.09763 2.794405 4.09763 3.347759 0 .121224.108.31004.24.41959.48877.40564.34232 88.95454-.14882 89.98456-.53215 1.11602-1.64618 2.13039-3.45118 3.14244-.836.46873-1.628.93656-1.76 1.03961-.132.10305-.744.4556-1.36.78343-.616.32784-1.768.97762-2.56 1.44396-1.97054 1.16028-4.40005 2.55849-5.84 3.361-.66.36782-3.864 2.20246-7.12 4.07697-3.256 1.87451-6.712 3.859-7.68 4.40998-.968.55097-2.156 1.23237-2.64 1.5142-3.20685 1.86735-5.81435 3.36385-5.86115 3.36385-.0302 0-.86576.48155-1.85686 1.07011-.99109.58856-2.52199 1.4773-3.40199 1.97496-.88.49767-2.824 1.60896-4.32 2.46955-1.496.8606-3.62 2.0702-4.72 2.68802-1.1.61781-2.18 1.24459-2.4 1.39283-.22.14824-.904.54445-1.52.88047-.616.33601-1.948 1.09452-2.96 1.6856-2.870606 1.6766-4.926709 2.86003-6.32 3.63761-.704.39288-1.928 1.09339-2.72 1.55666-9.990093 5.84365-10.526066 6.08249-12.259182 5.46318zm2.416643-8.57718c.245771-.17501 1.187913-1.16501 2.093646-2.2.905733-1.03499 2.119762-2.38855 2.69784-3.00787.578079-.61935 1.771053-1.94456 2.651053-2.94493.88-1.00037 2.308187-2.61763 3.173749-3.59392.865561-.97631 2.210062-2.49509 2.987779-3.37509.777717-.88 2.121531-2.39267 2.986251-3.3615.864722-.96882 2.001715-2.26482 2.526651-2.88.52494-.61517 1.38894-1.5871 1.92-2.15984.53106-.57273 1.90157-2.11193 3.04557-3.42044 1.144-1.30852 2.62-2.96707 3.28-3.68568.66-.71861 1.884-2.08898 2.72-3.04528 3.42761-3.92083 5.99139-6.81189 8.93005-10.07001 1.57965-1.75137 1.64279-1.89933 1.06707-2.50026-.65947-.68834-81.632579-.77153-82.373757-.0846-.790041.73219-1.193566.18539 6.617951 8.96764 3.620262 4.07015 10.072364 11.3487 15.753905 17.77182 3.34137 3.7775 7.04937 7.89445 8.24 9.14879 4.275954 4.50475 4.964781 5.25971 4.964781 5.44153 0 .10149.545733.74552 1.212739 1.43119.667007.68568 1.309232 1.42667 1.427168 1.64667.895112 1.66978 3.023035 2.67269 4.077554 1.92181zm42.148319-53.45409c.6061-.72031.53576-1.00191-.77741-3.11249-.65539-1.05338-1.60134-2.70723-2.1021-3.67523-1.11648-2.1582-5.17966-9.35629-7.1802-12.72-.81122-1.364-1.82001-3.128-2.24175-3.92-.81998-1.539894-7.01935-12.457205-7.47981-13.172213-.15152-.235283-.42049-.692902-.59771-1.016931-.17723-.324029-.39202-.632277-.47732-.684995-.0853-.05272-.50844-.831605-.9403-1.730856-1.01911-2.122027-6.365798-11.570634-7.71565-13.635005-.34525-.528-1.070607-1.824-1.611906-2.88-1.250189-2.438949-6.111842-11.015011-7.437549-13.12-.554217-.88-1.470757-2.505802-2.036753-3.612894-2.55066-4.989101-2.698418-4.961741-6.118442 1.132894-1.591107 2.835424-1.806163 3.214382-3.268758 5.76-.682572 1.188-1.907082 3.348-2.721136 4.8-.814056 1.452-1.913964 3.396-2.44424 4.32-.530277.924-1.356096 2.4-1.835152 3.28-.479056.88-1.033512 1.852-1.232125 2.16-.198611.308-1.621696 2.792-3.162408 5.52-1.540712 2.728-3.252851 5.752-3.804752 6.72-2.08172 3.651208-3.383235 5.955214-3.962146 7.013982-.32899.601692-1.089763 1.932751-1.690609 2.957909-.600845 1.025159-1.290565 2.224867-1.532712 2.666018-.242148.44115-.93089 1.666091-1.530538 2.722091-.59965 1.056-1.416757 2.496-1.815795 3.2-.39904.704-1.297517 2.288-1.996616 3.52-.699101 1.232-1.84652 3.284-2.549823 4.56-.703302 1.276-1.369044 2.428-1.479427 2.56-.110382.132-.558984.888-.996893 1.68-.892251 1.61372-3.694164 6.60866-4.141196 7.38247-.28838.49918-.287431.50677.144854 1.16.602709.91076 85.972212 1.07341 86.736372.16525zm-91.621063-5.55244c.280544-.28054 1.59907-2.532 4.51832-7.71528.817774-1.452 1.861072-3.288 2.318441-4.08.45737-.792 1.106351-1.944 1.44218-2.56.335828-.616 1.06639-1.894896 1.62347-2.841992.55708-.947096 1.012872-1.75109 1.012872-1.786653 0-.03556.454126-.844665 1.00917-1.798008.555043-.953341 1.716945-2.993347 2.582004-4.533347.865061-1.54 2.127858-3.772 2.806216-4.96 1.680064-2.942272 3.110596-5.470546 4.390712-7.76.59045-1.056 1.720018-3.036 2.510152-4.4.790136-1.364 1.805802-3.164 2.257037-4 .451235-.836 1.084848-1.952 1.408029-2.48.517883-.846098 2.406771-4.186462 4.252363-7.52.341045-.616.693034-1.240026.782199-1.386725.08916-.146699 1.017776-1.766699 2.063579-3.6 1.045803-1.833301 2.313541-4.053275 2.817195-4.933275.503654-.88 1.187778-2.104 1.520274-2.72.332496-.616.990758-1.774259 1.462804-2.57391.995909-1.687079.988367-1.646922.433266-2.306623-.467752-.555891-.671542-.564747-3.415-.148425-.572.0868-2.084.309579-3.36.495062-1.276.185482-2.68.401237-3.12.479456-.44.07822-1.484.210093-2.32.293054-2.427901.240936-3.99224.457704-4.191411.580799-.101639.06282-.802151.172909-1.556693.244651-1.399997.13311-2.737597.307672-4.731896.61753-.616.09571-1.696.240145-2.4.320972-.704.08083-1.928.261919-2.72.402429-.792.140509-2.052.317237-2.8.392727-.748.07549-1.936.220308-2.64.321819-.704.10151-1.748.245857-2.32.320769-2.676643.350549-3.693653.504496-4.88.738696-.704.138978-1.964.314492-2.8.390028-.836.07554-2.024.207121-2.64.292411-.616.08529-1.732.235109-2.48.332933-.748.09783-1.468.208355-1.6.245622-.132.03727-.852.150739-1.6.25216-.748.101421-1.756.252389-2.24.335486-.484.0831-1.456.209159-2.16.28014-2.251983.227052-4.051176.489176-4.482018.65298-.230348.08758-.714229.159234-1.075292.159234-3.0437297 0-4.0625428.96053-3.2244631 3.04.2305307.572.4773142 1.184.5484078 1.36.071094.176.1617912.5.2015499.72.122716.679034 2.5056214 7.407139 3.1450454 8.88.27259.627886.377074.938016 1.185913 3.52.579096 1.848597 2.073774 6.054318 2.615682 7.36.255663.616.593514 1.552.750781 2.08.589764 1.980053 2.372437 7.083522 3.213616 9.2.297288.748.616517 1.612.709397 1.92.356943 1.183653.66152 2.092219 1.609095 4.8.538915 1.54 1.09094 3.124 1.226721 3.52.135783.396.311832.7884.391221.872.079389.0836.144344.282578.144344.442171 0 .159594.0689.415194.153112.568.08421.152807.438576 1.141829.787474 2.197829.954766 2.88976 2.33715 6.78828 2.694902 7.6.174528.396.807061 2.21385 1.405627 4.03968 1.305309 3.98161 1.257499 3.89855 2.358885 4.09853.066.012.248122-.10633.404717-.26293zm97.953613-.47528c.36981-.33662.65756-.9475 1.22473-2.6.92236-2.68734 2.44819-7.07344 2.97786-8.56.21948-.616.51172-1.48.6494-1.92.13769-.44.44057-1.304.67307-1.92.23249-.616.78005-2.164 1.2168-3.44.43675-1.276.8635-2.464.94832-2.64.0848-.176.54104-1.436 1.01381-2.8.47277-1.364 1.26838-3.632 1.76803-5.04.49964-1.408 1.29316-3.676 1.76337-5.04.47022-1.364 1.19205-3.416 1.60408-4.56.41203-1.144.80985-2.26.88406-2.48.22798-.675902 2.15245-6.164232 3.19791-9.12 2.23737-6.325539 2.76303-7.823091 3.20124-9.12.25275-.748.67956-1.972.94847-2.72.94156-2.618989.16786-3.508634-3.05906-3.517501-.50028-.0014-1.11228-.08235-1.36-.179941-.24773-.09759-.91842-.236984-1.49042-.309756-.572-.07278-1.652-.216276-2.4-.318895-.748-.102617-1.972-.246168-2.72-.319-1.39735-.136057-3.23507-.415601-3.70532-.563633-.384-.120877-2.52389-.391957-4.37468-.554181-.88-.07713-1.96-.216331-2.4-.30933-.92006-.194464-2.1141-.378849-4.16-.64239-1.38353-.178218-2.57959-.346163-4.64-.651528-2.20495-.326784-3.28123-.471397-4.72-.634191-.836-.09459-1.916-.246435-2.4-.337428-.484-.09099-1.348-.22761-1.92-.303592-.572-.07598-1.652-.222108-2.4-.324727-.748-.102617-1.972-.24495-2.72-.316294-.748-.07134-1.972-.245319-2.72-.386613-1.80511-.340976-3.43196-.566648-5.28-.732429-.836-.07499-1.916-.212557-2.4-.305694-.484-.09314-1.384-.240677-2-.327864-.616-.08719-1.3-.2048-1.52-.261362-.22-.05656-1.048-.158829-1.84-.227257-.792-.06843-2.003283-.211199-2.691742-.317266-2.624021-.404264-1.695834 3.683058 1.798745 7.920872.145133.176.416123.608.602202.96 2.485483 4.701744 7.266425 13.173549 8.668197 15.36.451348.704 1.225258 2.072 1.719808 3.04.97803 1.914339 6.70948 11.996723 7.77655 13.68.36261.572 1.08896 1.868 1.61412 2.88.99135 1.910363 2.30336 4.252653 5.40778 9.654336 1.93941 3.374552 1.9319 3.361794 2.55844 4.345664.22416.352.86438 1.504 1.4227 2.56.85601 1.61903 2.06603 3.77511 6.75346 12.03373.93787 1.6524 1.73842 2.08505 2.52807 1.36627z"/>
  <path stroke="#000" stroke-width=".377953" d="M78.2156458 182.2645889c-.352-.18382-1.864-1.03398-3.36-1.88926-1.496-.8553-3.224-1.82739-3.84-2.16022-.616-.33284-2.056-1.16055-3.2-1.83935-2.119419-1.25758-5.660144-3.31029-6.96-4.03501-.396-.2208-1.98-1.12228-3.52-2.00331-1.54-.88104-3.772-2.1571-4.96-2.83573-1.188-.6786-3.024-1.73921-4.08-2.35691-1.056-.61768-2.208-1.28678-2.56-1.48691-8.736835-4.96719-10.393286-5.91794-14.540728-8.34591-.957402-.56048-1.757534-1.01905-1.778075-1.01905-.02054 0-1.71308-.972-3.761197-2.16-2.048117-1.188-3.745507-2.16-3.771976-2.16-.08805 0-4.612762-2.58441-5.588024-3.19175-.528-.32881-1.298255-.78567-1.711678-1.01523-.413423-.22956-2.465423-1.40568-4.56-2.61358-2.094577-1.20791-4.708322-2.69076-5.808322-3.29524-2.2659926-1.24521-3.4656122-2.33476-3.8-3.45133-.29310638-.97873-.29310638-88.682521 0-89.67539.23692096-.802546 1.7757768-2.427155 2.760105-2.913912.3519422-.174038.999895-.541894 1.439895-.817456.44-.275563 1.664-.989283 2.72-1.586046 1.056-.596764 2.82-1.604556 3.92-2.239541 1.1-.634984 2.54-1.466176 3.2-1.847091 1.375096-.793631 4.325155-2.50104 6.071126-3.513794.65512-.380003 1.33912-.77049 1.52-.867747.18088-.09726.868874-.493096 1.528874-.87964 1.628555-.953802 4.40599-2.561925 7.2-4.168771 1.276-.733832 3.472-2.001621 4.88-2.817308 1.408-.815688 3.424-1.980248 4.48-2.58791 1.056-.607664 3.144-1.809931 4.64-2.671704 1.496-.861774 3.728-2.145493 4.96-2.852709 1.232-.707216 2.924-1.695361 3.76-2.195878.836-.500516 1.988-1.165363 2.56-1.477437.572-.312073 2.552-1.447327 4.4-2.522786 1.848-1.075459 3.756-2.174491 4.24-2.4422926.484-.2678016 1.564-.8950073 2.4-1.3937904.836-.498783 2.523494-1.4772057 3.749987-2.1742726 2.426437-1.3790461 2.675171-1.5215392 5.303216-3.038083 3.750432-2.16422964 3.544375-2.18444995 9.026797.8857908 1.628.911705 3.5 1.994649 4.16 2.4065424.66.4118933 1.74 1.0569738 2.4 1.4335122 1.768678 1.0090528 1.931589 1.1028339 4.72 2.7171067 2.481976 1.4368715 4.69973 2.7009025 7.68 4.3772985.792.445498 1.8 1.039524 2.24 1.320058.97713.622996 10.51091 6.112415 13.6 7.830697 1.232.685289 2.6 1.474245 3.04 1.753235 1.11972.709976 2.05089 1.253051 7.6 4.432454 2.684 1.537816 5.888 3.373744 7.12 4.079844 2.22513 1.275294 9.88344 5.718737 12.64 7.333888.792.464056 1.872 1.078921 2.4 1.366369 4.4517 2.423541 5.89863 3.517619 6.49641 4.912167.49812 1.162065.473 88.737506-.0258 89.908456-.48082 1.1288-1.45288 2.03426-3.35061 3.12109-.924.52917-2.688 1.54053-3.92 2.24747-1.232.70694-2.96893 1.69819-3.85984 2.20278-.89092.50459-2.04292 1.17101-2.56 1.48094-1.035.62034-9.21956 5.31168-10.62016 6.08741-.484.26806-1.14857.65528-1.47682.86048-.32825.20521-.62942.3731-.66927.3731-.0398 0-.64631.342-1.3477.76-1.98609 1.18362-4.47774 2.62207-5.6669 3.27152-1.11594.60947-4.05084 2.3071-6.99931 4.04861-.924.54576-1.932 1.11921-2.24 1.27435-.308.15514-1.388.76755-2.4 1.36091-2.1894 1.2837-4.70656 2.7309-7.12 4.09349-.968.54651-2.57909 1.4701-3.5802 2.05238-1.00111.58231-1.84854 1.05874-1.88318 1.05874-.0346 0-.35276.18293-.70693.40651-.75502.47663-5.129604 2.99411-7.98969 4.59792-1.1.61683-2.18 1.24258-2.4 1.39053-.22.14797-1.228.72666-2.24 1.28598-1.012.55933-2.140973 1.21994-2.508829 1.46802-.367854.24806-.703408.45104-.745673.45104-.04227 0-.605293.29952-1.251173.66558-3.092167 1.75258-4.068728 1.9705-5.494325 1.22608zm2.909318-7.98979c.300901-.18595 1.353399-1.25665 2.338887-2.37931 3.711038-4.2276 7.432857-8.42283 8.591795-9.68467.66-.71859 1.884-2.08453 2.72-3.03544.836-.95089 2.168-2.45792 2.96-3.34895.792-.89103 1.906878-2.15858 2.47751-2.81678.57063-.6582 1.71501-1.95272 2.54307-2.87672.82806-.924 2.16118-2.42596 2.96249-3.3377s1.92867-2.17174 2.50525-2.8c.57658-.62826 1.54642-1.7183 2.15521-2.4223.6088-.704 1.46905-1.68167 1.91168-2.17259.44264-.49093 1.46311-1.64293 2.26773-2.56.80461-.91708 2.35261-2.66125 3.44-3.87594 4.231-4.72635 4.20869-4.69044 3.48545-5.60989-.40152-.51044-81.872817-.69641-82.8538-.18913-1.114321.57624-1.00247 1.30159.443751 2.87768.495912.54045 2.485659 2.77729 4.421659 4.97076 1.936 2.19347 3.916 4.426 4.4 4.96116.484.53517 2.24639 2.51764 3.916424 4.40549 5.051238 5.71006 8.083322 9.13005 9.191394 10.3673.5787.64616 1.412182 1.58912 1.852182 2.09548 2.048598 2.35755 4.779922 5.38371 6.467555 7.16571 1.018845 1.07581 2.500445 2.67815 3.292445 3.56072.792.88259 1.998 2.2033 2.68 2.9349.682.73161 1.24 1.39936 1.24 1.4839 0 .20755 1.942541 2.12146 2.41943 2.38375.593546.32646 1.553784.28336 2.169888-.0974zm-18.43367-8.13483c.303704-.49141-2.789698-4.29392-6.381098-7.84388-.844003-.83426-1.53455-1.58586-1.53455-1.67023 0-.0844-.541787-.73378-1.203971-1.44316-.662184-.70937-1.886184-2.02075-2.72-2.91417-.833816-.89342-1.516029-1.70869-1.516029-1.81172 0-.10303-.558-.78184-1.24-1.50848-.682-.72664-1.6-1.77538-2.04-2.33053-.44-.55515-2.852-3.32331-5.36-6.15146-2.508-2.82815-5.601805-6.32814-6.875122-7.77775-4.233294-4.81941-4.537801-5.02018-6.418105-4.23168-1.968122.82534-7.916632 3.46133-9.266773 4.10644-.748.3574-1.792.81457-2.32 1.01593-6.4091026 2.44426-6.4382854 3.21093-.24 6.3051.748.3734 1.936 1.05876 2.64 1.52302 1.980187 1.30584 12.212112 7.17291 14.24 8.16533.704.34453 1.483525.79152 1.732277.99331.24875.20179.545934.36689.660408.36689.114473 0 .30399.1155.421149.25667.117158.14117.359974.32246.53959.40288.179618.0804.686576.36977 1.126576.64299 1.688795 1.04869 10.634883 6.13338 12.237462 6.9554.925396.47467 2.330538 1.28084 3.122538 1.7915 5.461408 3.52134 10.011678 5.77888 10.395648 5.1576zm36.858387-.64203c.894115-.43723 2.039735-1.06034 2.545815-1.38467.50608-.32432 1.78415-1.07362 2.84015-1.66511 2.49768-1.39897 5.01648-2.84011 7.16906-4.10179.95099-.55739 1.75972-1.01344 1.79718-1.01344.0375 0 1.09539-.60123 2.35094-1.33607s2.82282-1.64378 3.48282-2.01989c.66-.37609 1.452-.8308 1.76-1.01046.308-.17966 1.28-.73709 2.16-1.23873 1.8796-1.07145 4.0274-2.30596 6.8-3.90848 1.1-.63579 2.49521-1.43731 3.10046-1.78117.60525-.34386 1.43325-.82454 1.84-1.06819.40675-.24364 1.09954-.63028 1.53954-.8592.44-.22891 1.412-.79115 2.16-1.24941.748-.45826 1.864-1.10355 2.48-1.43397 8.82123-4.73171 8.8836-4.98719 1.96304-8.04229-1.69567-.74856-3.46317-1.53452-3.92778-1.74658-.46461-.21206-.89661-.38535-.96-.3851-.24397.00096-2.26349-.87443-3.74779-1.62456-4.22698-2.13622-4.35085-2.11147-7.57192 1.51275-1.11028 1.24924-2.78748 3.12761-3.72712 4.17416-2.33261 2.598-3.1341 3.50135-5.54843 6.25361-1.144 1.30412-3.07928 3.49443-4.30062 4.86735-1.22134 1.37293-2.91334 3.28042-3.76 4.23887-.84666.95845-1.97462 2.21845-2.50658 2.8s-1.61196 1.79667-2.4 2.70027c-2.36498 2.71179-3.26707 3.73776-5.1326 5.83749-3.763694 4.23616-3.873746 5.18034-.406165 3.48461zm-90.341212-35.37934c.817947-.35989 1.775177-.7834 2.127177-.94114 3.43325-1.53852 6.656072-2.95933 7.260826-3.201.406545-.16246 1.495174-.65166 2.419174-1.0871.924-.43545 1.926006-.89178 2.22668-1.01407 2.267526-.9223 3.200677-2.29176 2.338408-3.43178-.1292-.17082-.2372-.43756-.24-.59275-.0028-.15519-.07007-.40719-.149494-.56-.07942-.15281-.233804-.60183-.343068-.99783-.382172-1.38508-2.357364-7.10979-2.802457-8.12237-.496338-1.12916-.538419-1.23995-.804407-2.11763-.742232-2.44916-2.53774-7.59116-3.2125-9.2-.258357-.616-.563346-1.444-.677756-1.84-.387123-1.33993-.979068-3.084531-2.361535-6.96-.432895-1.213533-.504619-1.396259-.973465-2.48-.318138-.735381-.66073-1.756712-1.019726-3.04-.212129-.75829-1.173843-3.527373-2.250528-6.48-.352985-.968-1.1680526-3.272-1.8112616-5.12-1.7531878-5.037074-1.565308-4.63188-2.1758619-4.692594-1.0102699-.10046-.9430285-2.304918-.9430285 30.916429 0 35.540245-.322573 32.596545 3.392823 30.961835zm143.971577.39092c.21758-.14487.4856-.37463.5956-.51058.32423-.4007.27976-59.987106-.0451-60.416591-.1292-.170819-.23491-.440819-.23491-.6 0-1.810877-1.44612.101655-2.48619 3.288063-.37746 1.156385-.80951 2.390518-.96012 2.742518-.15061.352-.66309 1.756-1.13884 3.12-.47576 1.364-1.1819 3.38-1.56921 4.48-.38732 1.1-1.09714 3.116-1.57739 4.48-1.59256 4.523128-1.87959 5.348099-2.36591 6.8-.26528.792-.71999 2.088-1.01047 2.88-.29047.792-.68612 1.944-.87921 2.56-.19309.616-.50144 1.48-.68521 1.92-.33601.80448-1.39085 3.7769-2.86739 8.08-.43785 1.276-.86036 2.464-.93893 2.64-.0786.176-.39188 1.04-.69624 1.92-.30436.88-.78357 2.248-1.06492 3.04-1.61352 4.54204-1.62202 4.59556-.88347 5.56281.31799.41645.66486.75772.77083.75836.10597.00064 1.22376.50464 2.48399 1.12 1.26023.61536 2.32009 1.11883 2.35526 1.11883.0352 0 .44407.17085.90868.37967.46461.20881 1.45674.64996 2.20474.98033.748.33037 1.756.77904 2.24.99706.484.21802 1.168.50769 1.52.64373.352.13603.7084.3085.792.38327.0836.0748.27246.13594.4197.13594.14723 0 1.05083.39141 2.008.8698 1.84988.92458 2.46958 1.04968 3.1047.62679zm-29.95509-9.72608c.89358-1.01774.85574-1.15965-1.15487-4.33051-.3906-.616-1.12169-1.912-1.62465-2.88-.50295-.968-1.23937-2.336-1.63647-3.04-2.86642-5.08168-5.48101-9.63069-6.13742-10.67825-.42674-.681038-.7759-1.267273-.7759-1.302744 0-.03547-.33251-.666259-.73892-1.40175-4.5418-8.219558-7.66865-13.648211-8.55761-14.857256-.16176-.22-.6613-1.153509-1.11009-2.074464s-1.55707-2.972955-2.462854-4.56c-3.661361-6.41519-4.610822-8.047821-5.213921-8.965536-.346989-.528-1.091936-1.86-1.655437-2.96-1.155498-2.255624-6.350109-11.405842-7.58452-13.36-.444706-.704-1.118491-1.892-1.497301-2.64-2.926171-5.778037-3.469542-5.753843-6.670645.297002-.295915.55935-.743094 1.35135-.993731 1.76-.250637.408649-.794614 1.354998-1.20884 2.102998-.414225.748-1.129283 2.008-1.589017 2.8-.459735.792-1.484077 2.592-2.276314 4-.792238 1.408-1.891531 3.352-2.442872 4.32-1.869982 3.283162-2.877928 5.095763-2.877928 5.175411 0 .04367-.10008.193061-.222398.331991-.12232.138929-.529204.828598-.904188 1.532598-.374982.704-.73523 1.352-.80055 1.44-.13203.177874-.176718.256026-2.150034 3.76-.768156 1.364-1.45151 2.552-1.518561 2.64-.06705.088-.467688.808-.890301 1.6-.422614.792-1.06989 1.944-1.438392 2.56-.368502.616-1.027005 1.768-1.463341 2.56-.735768 1.335502-1.063141 1.91681-2.928477 5.2-.834398 1.468634-4.223864 7.422099-5.986867 10.5157-1.89256 3.32095-3.017558 5.30618-4.309763 7.60526-1.995656 3.55065-5.241403 9.27831-5.886107 10.38701-.801419 1.37821-.699941 2.0824.416405 2.88958.702166.5077 85.841104.0864 86.291884-.42704zm-91.398892-5.70202c.149128-.16478.6103-.89561 1.024828-1.62405.41453-.72844 1.388685-2.44044 2.164791-3.80444.776107-1.364 1.942715-3.44527 2.592464-4.62503.649747-1.17977 1.310541-2.33177 1.468427-2.56.157886-.22824.598048-.99097.978134-1.69497.380088-.704 1.068952-1.928 1.53081-2.72.461856-.792 2.100765-3.672 3.642018-6.4 1.541254-2.728 3.150091-5.568238 3.575195-6.31164.425102-.743402.976854-1.715402 1.226112-2.16.904571-1.613472 1.180149-2.099906 1.545691-2.72836.204741-.352.944998-1.684 1.645014-2.96.700018-1.276 1.361618-2.428 1.470223-2.56.108606-.132 1.080536-1.824 2.159845-3.76 1.07931-1.936 2.338689-4.168 2.798622-4.96 1.724526-2.969621 3.059581-5.33387 3.975379-7.04.519592-.968 1.178263-2.12 1.463714-2.56.285449-.44.792761-1.304 1.127357-1.92.334596-.616.699296-1.264.810441-1.44.26693-.42268 2.955136-5.21383 3.949987-7.04.431461-.792 1.178944-2.096096 1.661074-2.897992.987163-1.641882 1.012987-2.009744.189717-2.70248-.556405-.468184-.539579-.467269-2.610261-.141883-.88.138283-2.104.310989-2.72.38379-1.332403.157469-3.339264.443693-4.56.650359-.484.08194-1.492.212542-2.24.290228-1.860134.193192-3.819816.490572-4.41136.66942-.270248.08171-.80435.148558-1.186893.148558-.645105 0-1.216317.07193-3.761747.473718-.528.08334-1.788.265327-2.8.404408-1.012.139082-2.280301.3224-2.818448.407375-.538146.08497-1.199896.154499-1.470557.154499-.270661 0-.536608.072-.590995.16-.05439.088-.550627.16-1.102758.16-.55213 0-1.39388.06835-1.870557.151885-.822507.144144-2.941112.453365-5.586685.815403-2.586758.35399-3.459109.496358-3.93136.641597-.270248.08311-.846248.151446-1.28.151853-.433752.00048-1.76064.152912-2.94864.338904-1.188.185993-2.664.394761-3.28.463932-1.267648.142343-3.061347.39801-4.48.63856-.528.08953-1.536.226541-2.24.304469-2.043778.226232-3.953297.503312-4.578563.66437-.31821.08196-.864202.149027-1.213315.149027-2.9858958 0-4.2921518 1.177813-3.5126698 3.167274.2311651.59.775087 2.152726 1.2087152 3.472726 1.0519906 3.202347 2.1027426 6.150539 2.6801676 7.52.259733.616.56661 1.444.681949 1.84.471365 1.618358 2.443287 7.405507 2.807711 8.24.410562.940142 1.03 2.568794 1.186655 3.12.429726 1.512032.693952 2.324346 1.379163 4.24.409197 1.144.85508 2.404.990848 2.8.135769.396.453577 1.241771.70624 1.879493.252662.63772.848907 2.32972 1.324989 3.76 1.263547 3.796046 2.412603 7.011045 2.714289 7.594443.145101.280595.263821.653499.263821.828675 0 .175178.072.363002.16.417389.088.05439.16.239613.16.411614 0 .172.06536.437751.145237.590557.07988.152807.255149.637829.389488 1.077829.69495 2.27617 2.624901 7.58105 2.849336 7.832.07477.0836.135939.26207.135939.39661 0 .13453.169552.71413.376784 1.288.20723.57386.651226 1.87139.986656 2.88339.959933 2.89613 1.098006 3.16498 1.707957 3.32556.645789.17002.984267.0949 1.339021-.29707zm97.869802-.34929c.39502-.32231 1.19269-2.27905 2.20102-5.3992.0711-.22.53718-1.552 1.03574-2.96.49856-1.408 1.25359-3.568 1.67784-4.8.42425-1.232 1.16666-3.356 1.6498-4.72.48314-1.364.92928-2.624.99142-2.8.0621-.176.17543-.464.25176-.64.0763-.176.31674-.86.53424-1.52.21751-.66.65858-1.92.98016-2.8.32158-.88.64432-1.78.7172-2 .0729-.22.39892-1.156.72452-2.08.3256-.924 1.05755-3.012 1.62656-4.64.569-1.628 1.39356-3.968 1.83235-5.2.4388-1.232 1.22646-3.5 1.75037-5.04.5239-1.54 1.01914-2.944 1.10054-3.12.0814-.176.39668-1.04.70063-1.92.30395-.88.74584-2.14.98197-2.8 4.23048-11.82428 4.1918-11.683474 3.44372-12.535482-.59427-.676846-1.20447-.876419-3.27347-1.070633-.79562-.07468-1.84259-.206415-2.32659-.292735-2.26375-.403731-5.44726-.82043-6.27056-.820772-.5008-.00016-.94948-.06335-.99704-.14032-.0476-.07697-.46582-.18134-.92945-.231935-.46362-.0506-1.38295-.169254-2.04295-.263685-.66-.09443-1.9757-.237036-2.92377-.316902-.94808-.07987-1.95608-.214333-2.24-.298816-.77611-.230936-3.61425-.648816-6.75623-.994771-.88-.09689-1.8635-.244114-2.18556-.327157-.32206-.08304-1.11406-.21976-1.76-.303818-.64594-.084057-1.75044-.234891-2.45444-.335185-.704-.100296-1.856-.24053-2.56-.311631-.704-.0711-1.964-.245744-2.8-.388096-2.41291-.410862-3.6724-.579212-4.96-.66298-.66-.04294-1.452-.142956-1.76-.222261-.308-.07931-1.136-.224893-1.84-.323525-.704-.09863-1.748-.255278-2.32-.348101-.572-.09282-1.688-.228248-2.48-.300947-.792-.0727-1.836-.208126-2.32-.300947-1.426829-.273639-3.00813-.486579-4.8-.646378-.924-.0824-1.932-.218574-2.24-.302605-3.643691-.994102-4.122218.117666-1.8 4.181962.858 1.501654 1.680016 2.940171 1.826701 3.196706.146686.256534.362686.586708.48.73372.248181.311006.27124.35208 1.497437 2.667294 1.374316 2.594883 6.90683 12.331763 7.620332 13.411314.338541.512224.61553.974553.61553 1.027401 0 .05285.10724.214587.23831.359421.13107.144832.5889.978501 1.01738 1.852598.89534 1.826439 6.46202 11.680245 7.67694 13.589266.44804.704 1.22461 2.072 1.72572 3.04.9949 1.921838 6.86143 12.332174 7.1681 12.72.33865.428254 1.31946 2.122667 2.17648 3.76 1.63699 3.12746 7.09334 12.65093 7.63152 13.32.65588.8154 1.4197.92797 2.16577.3192zm-105.309991-73.724674c.158803-.08499.663166-.154526 1.120805-.154526.45764 0 1.308372-.0751 1.890518-.166888 2.293528-.361626 3.024187-.471427 4.178448-.62793.66-.08949 2.136-.312987 3.28-.496664 1.144-.183678 2.728-.391086 3.52-.460907.792-.06982 1.692-.167758 2-.217637.308-.04988 1.1-.165838 1.76-.257689 1.352509-.188227 4.001723-.571947 5.68-.822709.616-.09204 1.341112-.235347 1.61136-.318461.270248-.08311.909946-.151115 1.421552-.151115.511606 0 1.406494-.07686 1.98864-.1708 2.340355-.377661 4.008776-.623157 5.378448-.791403 1.301427-.159863 2.043206-.270661 3.76-.561624.308-.0522 1.172-.155923 1.92-.230496.748-.07457 2.08-.257576 2.96-.406675.88-.149098 2.14-.331367 2.8-.405042 4.659744-.520162 5.912104-.812838 6.58045-1.537858.802782-.870854.77955-.502974.77955-12.344006 0-12.4944656.072267-11.6982427-1.106061-12.1863221-.445323-.1844592-.564886-.1449243-1.805422.5969869-.730685.4369902-2.084517 1.2081832-3.008517 1.7137612-.924.505578-1.75575.980178-1.848333 1.054666-.09258.07449-.920584.559621-1.84 1.078074-.919417.518453-2.139667 1.230729-2.711667 1.582835-.572.352107-1.592381.937484-2.267514 1.300837-.675132.363356-1.611132.888186-2.08 1.16629-.468867.278106-1.788486 1.04577-2.932486 1.705922-4.925462 2.842264-7.451341 4.30067-8.8 5.080995-3.786091 2.190606-5.74379 3.319254-7.36 4.243168-.968.553361-2.372 1.36763-3.12 1.809485-.748.441854-2.08 1.212108-2.96 1.711675-1.919142 1.08948-4.473597 2.562061-6.911562 3.984349-.985358.574851-2.739089 1.585182-3.897179 2.245182-3.457243 1.970296-3.867389 2.36387-3.179862 3.051397.373267.373267 2.490718.362099 3.198832-.01687zm113.525821.203024c.83554-.557904.61156-1.305723-.62384-2.082873-1.38659-.872258-11.2465-6.545231-12.99221-7.47516-.792-.421895-2.16-1.216386-3.04-1.765533-2.43179-1.517514-11.75956-6.876816-13.84-7.951821-1.012-.52292-1.948-1.040776-2.08-1.150792-.81216-.676897-12.60023-7.494007-14.96-8.651455-.704-.345306-1.502797-.792549-1.775102-.993873-.272308-.201324-.569492-.366043-.66041-.366043-.090918 0-.249002-.100848-.351298-.224106-.448035-.539851-3.222028-2.0346735-3.576944-1.9275098-1.299784.3924596-1.236246-.2431186-1.236246 12.3664478 0 14.221093-.520434 12.829533 5.04 13.476197 1.981603.230456 3.258096.407845 5.04.700387 2.10219.345125 3.734189.56233 4.96.660133.572.04564 1.292.146902 1.6.225033.308.07813 1.208.226143 2 .328914.792.102771 1.872.260166 2.4.34977.528.0896 1.572.22202 2.32.29426.748.07224 1.792.208538 2.32.302882 1.56309.279296 3.25122.489965 5.04327.629373.9258.07202 1.9338.209582 2.24.305697.3062.09611 1.06073.246936 1.67673.335162.616.08822 1.5963.236222 2.17845.328883.58214.09266 1.38014.168477 1.77331.168477.69924 0 1.88631.173787 3.32824.487251.396.08609 1.224.222915 1.84.304061.616.08115 1.696.228461 2.4.327366.704.09891 1.856.247127 2.56.329378 1.36678.159685 2.86156.379363 4.16.611363 1.02265.182727 2.03056.208696 2.25605.05813z"/>
</svg>
