<svg xmlns="http://www.w3.org/2000/svg" viewBox="0 0 72 72"><g fill="none" fill-rule="evenodd"><path fill="#007EBB" d="M8 72h56a8 8 0 0 0 8-8V8a8 8 0 0 0-8-8H8a8 8 0 0 0-8 8v56a8 8 0 0 0 8 8Z"/><path fill="#FFF" d="M62 62H51.32V43.8c0-4.99-1.9-7.78-5.85-7.78-4.3 0-6.54 2.9-6.54 7.78V62h-10.3V27.33h10.3V32s3.1-5.73 10.45-5.73c7.36 0 12.62 4.5 12.62 13.78V62ZM16.35 22.8A6.37 6.37 0 0 1 10 16.4c0-3.54 2.84-6.4 6.35-6.4 3.5 0 6.35 2.86 6.35 6.4 0 3.53-2.84 6.4-6.35 6.4ZM11.03 62h10.74V27.33H11.03V62Z"/></g></svg>