<svg xmlns="http://www.w3.org/2000/svg" viewBox="0 0 400 384.66804">
  <path fill="#fff" fill-rule="evenodd" d="M186.03616.1457495C154.88259 6.9157394 120.85161 14.601073 92.264164 20.38675c-.903.18-1.889.432-2.19.56-.301.128-.979.291-1.506.364-.527.072-1.882.338-3.011.591-3.351.75-4.142.918-6.297 1.334-2.589.5-3.286.717-3.286 1.021 0 .133.103.242.229.242s.773.41 1.437.911c16.634998 12.820418 32.688556 23.840429 48.905996 36.053 1.503 1.139 1.957 1.35 2.657 1.235 158.07462-17.469199-.44872.239637 158.056-17.497 10.317-6.900197 21.3298-14.42276 30.821-20.811 2.428-1.631 2.768-2.121 1.548-2.234-41.55885-6.798847-90.07253-15.4686092-129.348-21.7260005-3.22-.499-3.536-.52-4.244-.284m16.281 12.4250005c1.351.108 2.549.254 2.662.324.114.07.672.186 1.241.257 1.725.214 5.277 1.204 5.983 1.666.365.239.664.358.664.263 0-.094.49.138 1.089.516.6.379 1.185.693 1.301.699.527.027 2.824 2.486 3.462 3.708 1.373 2.625 1.4 6.524.065 9.242-.639 1.299-3.251 4.288-3.748 4.288-.118 0-.376.162-.575.36-.525.523-5.053 2.651-5.641 2.651-.274 0-.615.108-.758.241-.502.463-6.223 1.714-10.116 2.21-6.287.802-15.205.792-19.987-.022-.903-.154-1.907-.32-2.231-.369-.324-.049-.838-.168-1.142-.265-.304-.096-.778-.227-1.054-.29-2.664-.608-5.88-2.536-6.675-4.002-.214-.394.069-.449 2.556-.493 1.538-.027 3.715-.095 4.837-.151 2.151-.106 3.012.151 3.942 1.18.278.307 1.202.764 2.053 1.014.851.251 1.917.584 2.369.74 1.044.361 11.192.528 12.928.213 8.877-1.61 13.151-4.491 13.67-9.215.149-1.35-.111-1.481-1.643-.826-7.753 3.318-24.413 4.077-34.812 1.587-9.319-2.231-11.098-7.497-3.833-11.344 6.316-3.343 20.952-5.177 33.393-4.182m-15.46 2.786c-17.526 2.283-15.239 11.851 2.738 11.455 3.235-.072 7.023-.362 8.487-.652 3.397-.671 4.54-.948 4.778-1.158.143-.126.466-.23.718-.23.252 0 1.059-.326 1.794-.726 6.011-3.271 3.216-7.125-6.331-8.728-1.974-.331-9.527-.307-12.184.039m122.863 25.661c-16.665 9.051-17.726 9.671-17.727 10.364-.001.405.111.807.25.893 71.73454 207.39843-16.95525-47.1156773 47.861 137.042.081.377.242.808.359.959.117.15.299.735.404 1.3.106.565.302 1.027.435 1.027.134 0 .244.289.244.643 0 .498.717 1.191 3.183 3.08 17.33519 14.99156 36.17408 25.53144 54.179 41.458.669 1.083.964.182.829-2.539-.076-1.544-.204-4.347-.284-6.229-1.08522-29.02188-2.96908-60.8908-4.123-91.033-.338-8.962-.269-8.424-1.269-9.894-.499-.732-.982-1.393-1.074-1.469-21.94258-35.082769-43.65807-61.90267-64.403-94.478-.693-1.098.745-1.775-18.864 8.876m-61.443-7.532c.063.252.099 1.058.08 1.79-.042 1.588.526 1.46-7.017 1.591l-5.065.089v-3.552l2.875-.096c1.581-.052 2.896-.115 2.922-.14.372-.358 6.109-.064 6.205.318m-180.980996 2.505c-.573.923-1.767 2.812-2.655 4.197-21.77358 34.402873-45.349791 71.96526-63.6310004 100.368-.62199998.963-1.07299998 1.844-1.00299998 1.957.07.114.187 1.235.26 2.492 6.53654908 100.24742-.30744146-1.40927 6.73099998 100.438.131 0 .705-.236 1.274-.524 28.2413344-13.4799 59.3053144-26.44464 83.4400004-38.058 3.736-1.814 6.495-3.033 6.866-3.033.217 0 .394-.114.394-.253s.462-.405 1.027-.591c1.489996-.492 2.609996-1.17 2.689996-1.63.208-1.184 1.013-5.955 1.085-6.424 6.53643-39.89019 13.25934-81.11291 19.424-118.549.811-4.888 1.234-7.961 1.132-8.227-19.21652-12.11877-34.86863-20.781176-55.390996-33.455-.574-.37-.649-.311-1.643 1.292m140.274996 28.903c-40.483 5.016-73.645 9.16-73.694 9.209-.3.3-22.315 128.735-22.102 128.948.343.343 100.661 60.4 100.76 60.322.252-.2-2.985-28.792-5.542-48.954-1.701-13.413-1.742-13.655-2.514-14.647-.431-.555-1.022-1.477-1.314-2.05-.747-1.468-5.595-5.118-7.87-5.927-5.454-1.938-10.128-5.431-12.725-9.51-.27-.424-.557-.832-.637-.907-.186-.174-1.434-2.808-2.011-4.244-.93-2.313-1.397-7.553-1.147-12.868.092-1.958.221-5.284.288-7.392.067-2.108.194-5.496.284-7.529.089-2.033.195-4.805.235-6.161.207-6.997.462-13.675.526-13.739.04-.039 1.544-.071 3.342-.069 1.799.002 3.455-.001 3.681-.007.226-.005 2.382-.064 4.791-.131 6.645-.184 20.398-.446 26.694-.509 6.94-.068 7.543-.384 6.753-3.533-.305-1.216.036-1.188-11.133-.897-2.635.069-8.549.19-13.142.269-4.593.078-11.153.193-14.579.254l-6.229.111v-1.467c0-.807.105-1.532.233-1.611.231-.143 8.563-.359 22.081-.571 24.416-.384 23.431-.265 23.399-2.821-.026-2.158-.483-2.22-13.817-1.871-3.915.102-9.644.252-12.731.333-3.087.081-5.797.141-6.023.133-.63-.022-5.008.035-8.214.107-1.581.035-3.272.007-3.759-.061l-.884-.125.105-1.955c.057-1.076.116-2.017.131-2.093.036-.181-.192-.175 26.173-.694 19.708-.388 18.395-.257 18.988-1.897.314-.869.295-1.087-.161-1.866l-.517-.882-8.744.078c-9.079.081-16.731.204-28.525.459-5.426.117-6.919.075-6.942-.194-.372-4.434-1.374-3.997 9.614-4.192 4.892-.087 11.359-.207 14.371-.266 3.012-.059 8.898-.169 13.082-.244 4.183-.075 7.714-.203 7.846-.284.344-.213 1.123-2.612.848-2.612-.127 0-.359-.369-.517-.821-.157-.452-.446-.835-.643-.851-.93-.075-3.334-.039-9.254.14-3.539.108-6.619.193-6.845.19-2.183-.031-5.401.006-9.993.115-3.011.071-8.201.186-11.533.256-3.331.07-6.227.163-6.434.207-.424.09-.459-.948-.174-5.159.224-3.302.997-6.483 1.894-7.797.269-.393.427-.776.353-.851-.075-.074.052-.291.282-.482.229-.19.417-.493.417-.674 0-.18.408-.812.907-1.404.499-.591 1.084-1.33 1.301-1.641 1.008-1.448 6.748-5.869 7.62-5.869.129 0 .376-.169.549-.377.172-.208.703-.456 1.179-.551.476-.095 1.058-.34 1.294-.544.236-.204 1.168-.592 2.071-.863.904-.271 1.766-.58 1.917-.687.291-.207.605-.275 4.244-.917 3.344-.59 8.943-1.169 10.54-1.089 3.363.168 7.136.587 9.172 1.018.377.08 1.116.226 1.643.325.527.099 1.155.286 1.395.414.24.129.733.291 1.095.362.669.13 2.184.659 3.67 1.281.452.189.959.373 1.128.409.169.036.65.29 1.068.564.419.274.899.519 1.067.543 1.437.211 7.579 5.432 8.511 7.233.214.414.579.826.81.914.231.089.421.393.421.676 0 .282.246.736.547 1.009.302.272.549.692.55.932.001.24.162.745.357 1.121 1.713 3.292 1.945 6.483 1.414 19.439-.072 1.732-.182 4.689-.245 6.571-.063 1.882-.187 5.393-.276 7.803-.088 2.409-.227 6.228-.309 8.487-.081 2.259-.197 4.784-.258 5.613-.096 1.317-.373 9.098-.576 16.153-.07 2.403-.264 7.526-.53 13.963-.084 2.033-.155 4.497-.157 5.476-.003.978-.114 2.149-.247 2.601-.134.451-.44 1.622-.681 2.601-1.188 4.828-7.513 13.415-9.882 13.415-.19 0-.331.379-.332.89-.003 2.471-.738 4.812-2.601 8.291-1.049 1.96-4.242 4.767-7.123 6.263-1.045.542-1.246.858-.668 1.05.228.076 1.597 8.787 4.202 26.722 2.126 14.634 3.936 26.679 4.022 26.766.158.158 97.139-65.018 97.975-65.845.389-.384-45.804-131.72-48.23-137.128-.503-1.122 9.547-2.228-75.376 8.294m-161.674996 34.547c1.397.478 1.396.476 2.279 4.318.468 2.037.506 2.179 1.816 6.845.465 1.656.947 3.381 1.071 3.833.344 1.256 1.539 4.827 1.923 5.75.188.451.51 1.209.714 1.684.205.474.372.999.372 1.167 0 .167.116.518.257.78.562 1.04 1.66 3.607 1.66 3.881 0 .16.113.29.252.29s.333.371.433.825c.1.453.331.976.515 1.163.184.187.619.932.968 1.656.349.724 1.051 1.923 1.56 2.663.51.74.926 1.472.926 1.627 0 .154.101.28.224.28s.5.493.839 1.095c.338.602.704 1.095.812 1.095.109 0 .433.399.721.886.287.487 1.839 2.186 3.447 3.776l2.924 2.89-1.486 4.369c-.817 2.403-1.592 4.78-1.722 5.281-.129.501-.316.993-.415 1.092-.193.192-2.57-2.301-4.385-4.599-.603-.762-1.225-1.537-1.382-1.722-1.797-2.109-5.935-9.363-7.533-13.205-.125-.301-.481-1.126-.79-1.833-.309-.707-.562-1.401-.562-1.543 0-.141-.184-.61-.409-1.041-.225-.432-.41-.976-.411-1.209-.001-.233-.104-.541-.229-.685-.125-.143-.455-1.06-.733-2.039-.278-.979-.585-1.903-.682-2.054-.098-.15-.396-1.074-.663-2.053-.266-.979-.596-1.994-.732-2.255-.137-.261-.248-.778-.248-1.147 0-.37-.11-.74-.244-.823-.134-.083-.305-.552-.381-1.043-.076-.491-.408-1.878-.737-3.082-.329-1.205-.69-2.625-.802-3.156-.581-2.747-.599-2.72-2.929 4.251-.704 2.108-1.518 4.51-1.809 5.339-.291.828-.573 1.69-.626 1.916-.054.226-.542 1.704-1.084 3.285-.542 1.582-1.034 3.06-1.093 3.286-.059.226-.303.872-.543 1.436-.24.564-.439 1.118-.443 1.232-.01.327-.718 2.532-1.341 4.176-.314.829-.628 1.753-.698 2.054-.07.301-1.379 4.264-2.909 8.807l-2.781 8.259-.851-.352c-.999-.413-2.595-.969-3.18-1.107-.225-.053-.43-.106-.455-.117-.025-.012.199-.668.498-1.459.513-1.361 1.346-3.854 1.485-4.449.035-.15.514-1.567 1.064-3.148.55-1.581 1.046-3.06 1.101-3.286.055-.225.522-1.642 1.038-3.148.516-1.506 2.551-7.543 4.524-13.416 1.972-5.872 3.715-11.047 3.873-11.499.572-1.63 1.686-4.937 1.8-5.338.063-.226.559-1.705 1.101-3.286.543-1.581 1.03-3.059 1.084-3.285.054-.226.36-1.15.68-2.054.32-.903.651-1.861.737-2.129.167-.523.302-.509 2.59.275m311.391996 5.685c4.742.232 4.335-.156 4.118 3.931-.101 1.905-.226 4.312-.277 5.348-.13183 5.15541-31.29747.46202-36.421.306l.088-2.875c.048-1.581.134-3.429.192-4.107.058-.677.111-1.938.118-2.802l.013-1.571 1.711.119m43.6 36.148c2.312.124 2.098-.255 1.894 3.356-.1 1.769-.214 3.587-.255 4.038-.04.452-.087 1.539-.103 2.415l-.03 1.594-3.08-.162c-10.77536-.48927-21.38837-1.3209-32.061-1.75l-1.328-.043c.1556-3.2911.43214-6.77127.56-9.954l.043-1.33m-48.323 100.017c-28.309 21.075-51.637 38.418-51.839 38.54-.342.208 13.831 99.697 14.264 100.131.18.179 2.729-.443 3.064-.747.143-.13.598-.237 1.011-.237 18.08949-5.85078 36.44206-10.06164 54.034-15.849.15-.089 1.321-.444 2.601-.788 1.28-.345 2.758-.757 3.285-.915.527-.159 1.328-.356 1.78-.438.452-.082.944-.235 1.095-.34 4.06408-1.04877 7.88804-2.78723 12.15-3.573.302 0 .625-.123.718-.273.093-.151.406-.274.696-.274.348 0 .763-.441 1.223-1.301 22.28775-41.73672 44.64032-70.9488 64.474-108.47 0-.286-56.536-43.833-56.868-43.803-.119.011-23.379 17.263-51.688 38.337m-186.037-27.946c-.564.341-2.938996 1.362-3.167996 1.362-.103 0-1.065.415-2.137.923-28.624904 12.63983-60.257542 25.73903-89.5210004 41.776-.128.128.004.583.294 1.011.291.429.903 1.335 1.362 2.012.459.678 1.154 1.725 1.5460004 2.327.392.603.969 1.465 1.282 1.917.314.452.964 1.44 1.445 2.197.481.756 1.095 1.68 1.364 2.053 21.576446 34.48239 44.788152 64.67384 65.502 98.582.263.513.554.994.646 1.069.091.076.644.846 1.227 1.711.583.866 1.137 1.582 1.232 1.59 44.054706 3.89061 91.690246 11.79136 138.213996 15.723.632.052 1.371.164 1.642.249 1.162.362 1.161.324-.502-18.451-6.607-74.575-8.137-90.909-8.558-91.353-.615-.649-110.506-64.978-110.974-64.963-.267.009-.67.128-.896.265m222.278 30.726c.311.489.742 1.136.957 1.437.215.301 1.019 1.533 1.788 2.738 9.54071 14.95341 20.15708 30.12282 29.271 44.627.473.753.969 1.5 1.103 1.66.311.37.866 1.403.866 1.61 0 .087-1.14.897-2.533 1.799-3.064 1.985-2.826 1.829-5.63 3.688-2.75 1.824-2.445 1.818-3.61.072-.527-.791-1.032-1.499-1.122-1.574-9.88775-14.80773-20.35537-31.92017-29.663-45.175-.372-.527-.884-1.327-1.137-1.779-.254-.452-.542-.883-.64-.958-.099-.076-.447-.598-.773-1.162l-.594-1.025.854-.442c.47-.243.989-.561 1.153-.707.165-.146 1.532-1.057 3.038-2.024 3.348-2.151 3.335-2.142 4.517-2.963 1.275-.885 1.49-.867 2.155.178m-30.218 25.632c2.513.625 3.107.824 5.065 1.7 6.584 2.944 13.049 9.785 17.559 18.58.883 1.723 1.606 3.245 1.606 3.381 0 .136.18.636.399 1.11 1.722 3.729 2.223 10.487 1.142 15.409-.539 2.455-2.316 6.18-4.224 8.857-1.272 1.784-7.28 7.945-7.747 7.945-.136 0-.47.223-.743.496-1.46 1.46-10.905 6.896-11.981 6.896-.181 0-.682.184-1.113.409-.431.225-1.054.41-1.384.411-.33.001-.668.111-.75.245-.083.134-.552.315-1.043.401-4.916.868-6.039.984-8.285.858-2.693-.151-3.094-.199-4.517-.55-.527-.131-1.02-.249-1.095-.264-4.076-.808-11.628-6.182-14.788-10.523-.374-.515-1.082-1.419-1.571-2.01-.489-.591-.89-1.178-.89-1.303 0-.126-.158-.391-.352-.59-.65-.668-1.977-2.81-2.938-4.743-.524-1.054-1.046-1.957-1.159-2.008-.113-.05-.205-.3-.205-.555 0-.255-.175-.713-.388-1.017-.214-.305-.474-1.012-.579-1.57-.105-.559-.3-1.083-.433-1.166-.134-.083-.243-.505-.243-.939 0-.434-.107-.855-.238-.936-.893-.552-.944-10.182-.069-13.027 1.732-5.633 5.803-11.515 10.522-15.202 4.631-3.619 7.066-5.125 13.156-8.134 4.255-2.103 13.081-3.207 17.286-2.161m-181.616.143c4.931.272 9.559 1.401 16.935 4.131 1.347.499 4.314 1.823 5.612 2.505 3.131 1.645 4.453 2.41 4.946 2.865.311.286.666.521.79.521.397 0 5.168 3.758 6.721 5.295 3.25 3.214 5.068 5.881 6.566 9.626 2.936 7.344-2.68 17.112-9.837 17.112-.399 0-.877.151-1.063.336-.243.244-1.808.337-5.638.336h-5.302l2.184 2.306c5.716 6.039 7.28 10.316 5.244 14.339-.21.414-.311.753-.224.753.939 0-3.472 4.423-5.195 5.209-2.111.963-3.231 1.361-3.825 1.361-.328 0-.746.15-.928.332-.232.233-1.626.331-4.641.329-4.433-.004-5.684-.103-8.278-.662-.829-.178-1.772-.362-2.097-.408-.325-.046-1.002-.219-1.506-.384-.503-.164-2.024-.657-3.379-1.095-6.934-2.241-14.230996-6.251-18.689996-10.272-2.17-1.957-4.445-4.415-4.445-4.804 0-.135-.169-.415-.377-.622-.409-.409-1.785-3.047-2.393-4.59-2.141-5.428 2.436-13.689 7.584-13.689.304 0 .685-.133.848-.296.178-.178 2.056-.333 4.736-.392 4.776996-.104 5.119996-.178 4.095996-.876-2.543996-1.737-6.786996-6.59-8.370996-9.576-4.24-7.993.436-16.845 10.030996-18.99.527-.117 1.266-.292 1.642-.388.377-.096 1.794-.242 3.149-.325 1.355-.082 2.512-.196 2.571-.252.058-.056.199-.044.313.026.114.07 1.113.178 2.221.239m-1.503 8.133c-8.098 2.043-10.712996 9.455-5.686 16.114 1.377 1.823 5.511 5.462 6.226 5.48.169.004.452.181.628.393.286.344 4.605 2.551 6.729 3.438 15.919 6.646 28.753-.692 22.369-12.79-1.639-3.105-9.085-8.795-13.08-9.994-.29-.087-1.206-.423-2.034-.747-1.486-.581-3.726-1.28-4.791-1.496-4.458-.902-7.847-1.033-10.361-.398m170.855-.403c-.056.056-.461.159-.9.229-1.44.229-2.432.458-2.989.69-12.374 5.155-17.352 13.964-13.849 24.508 1.031 3.103 2.063 5.446 2.692 6.111.188.199.342.494.342.656 0 .734 4.192 6.947 6.425 9.523 6.685 7.713 14.631 10.304 21.912 7.144 13.806-5.991 17.501-16.059 10.803-29.437-1.227-2.449-1.575-3.061-2.975-5.221-5.207-8.036-11.583-13.167-17.397-14.001-1.278-.183-3.95-.316-4.064-.202m-180.228 29.157c-.081.132-.391.24-.688.24-2.926996 0-5.969996 4.151-5.672996 7.739.231 2.779 3.703 7.649 6.381996 8.95.452.219 1.007.545 1.232.724.582.462 4.107 2.302 4.107 2.144 0-.072.287.057.638.287.535.35 1.335.642 3.88 1.415 7.058 2.143 12.726 1.501 15.354-1.739 5.154-6.354-1.279-14.478-15-18.943-3.107-1.011-9.782-1.544-10.232-.817"/>
</svg>
