<svg xmlns="http://www.w3.org/2000/svg" viewBox="0 0 375 282">
  <path fill="#1da1f2" d="M143 278c-13-7-23-20-28-35-3-6-3-8-3-22l-1-15c-3 0-11 9-14 16l-3 5-1-3c-4-4-9-16-11-23-3-15-1-30 6-44l4-10c-2-2-10 2-17 10l-5 3c-1-1-3-13-3-21 0-15 5-30 15-41 6-8 6-9-1-9-23 0-55 13-75 30l-6 4c-1-1 10-25 18-37A199 199 0 0 1 142 2c16-3 44-3 59 0a195 195 0 0 1 114 63l8 8 14 1c15 0 27 2 26 4l-9 4c-11 5-16 8-16 11 0 1 0 2 8 2 9 0 21 2 27 5 3 2 3 2 1 2l-27 10c-7 3-10 6-10 9l-2 9c-5 21-22 39-43 46-9 3-26 3-36 1-15-5-28-14-36-26-3-5-5-6-7-6l-8 6c-31 32-50 75-52 119l-2 12-8-4zm140-127 2-3 4 2c7 5 11 1 4-4l-4-3 2-5c3-4 3-7 2-8-2-1-4 1-6 5l-3 4c-1 0-3 0-5-2-8-5-11-1-4 4l5 4-2 4c-2 2-1 6 1 6l4-4z"/>
</svg>
