<svg viewBox="0 0 119 70"
  xmlns="http://www.w3.org/2000/svg">
  <path fill="#B2292E" d="M53.0327 55.5162H40.5446L31.306 37.5486H26.6229V48.6032H31.752V55.5481H10.3438V48.6032H15.9507V21.5243H10.3438V14.5475H35.8616C43.8259 14.5475 48.1585 19.804 48.1585 26.0162C48.1585 30.7311 45.8648 34.0443 41.118 36.2106L47.7444 48.5713H53.0646V55.5162H53.0327ZM30.8918 30.9541C35.6704 30.9541 37.0403 28.31 37.0403 26.1118C37.0403 24.4234 36.0209 21.4606 32.0387 21.4606H26.6229V30.9223H30.8918V30.9541Z"></path>
  <path fill="#FFFFFF" d="M71.128 21.4925H66.2856V14.5475H86.547V21.4925H81.8321L88.6496 42.0087H88.777L95.6582 21.4925H91.1345V14.5475H108.401V21.4925H103.559L91.676 55.8029H83.425L71.128 21.4925Z"></path>
  <path fill="#FFFFFF" d="M60.8698 5.78674H58.4805V64.277H60.8698V5.78674Z"></path>
</svg>
